<svg width="21" height="21" viewBox="0 0 21 21" fill="none" xmlns="http://www.w3.org/2000/svg">
<g clip-path="url(#clip0)">
<path d="M0.334761 16.2167L8.3615 2.31397C8.80783 1.54091 9.60727 1.07932 10.5 1.07932C11.3927 1.07932 12.1922 1.54091 12.6385 2.31397L20.6652 16.2166C21.1116 16.9898 21.1116 17.9129 20.6652 18.686C20.2188 19.4591 19.4195 19.9206 18.5267 19.9206H2.47331C1.58061 19.9206 0.781174 19.459 0.334761 18.686C-0.111612 17.9129 -0.111612 16.9898 0.334761 16.2167ZM1.40026 18.0709C1.62425 18.4588 2.02538 18.6904 2.47331 18.6904H18.5267C18.9747 18.6904 19.3758 18.4588 19.5998 18.0709C19.8237 17.683 19.8237 17.2198 19.5998 16.8319L11.573 2.92917C11.349 2.54124 10.9479 2.30967 10.5 2.30967C10.0521 2.30967 9.65091 2.54124 9.42696 2.92917L1.40022 16.8319C1.17632 17.2198 1.17632 17.683 1.40026 18.0709Z" fill="#8A8A8A"/>
<path d="M9.88493 7.21915H11.1152V13.3707H9.88493V7.21915Z" fill="#8A8A8A"/>
<path d="M10.5001 14.6011C10.9524 14.6011 11.3203 14.9691 11.3203 15.4214C11.3203 15.8736 10.9524 16.2416 10.5001 16.2416C10.0478 16.2416 9.67985 15.8736 9.67985 15.4214C9.67985 14.9691 10.0478 14.6011 10.5001 14.6011Z" fill="#8A8A8A"/>
</g>
<defs>
<clipPath id="clip0">
<rect width="21" height="21" transform="matrix(-1 0 0 1 21 0)" fill="white"/>
</clipPath>
</defs>
</svg>
