<svg width="25" height="25" viewBox="0 0 25 25" fill="none" xmlns="http://www.w3.org/2000/svg">
<path d="M21.2788 19.8764C10.9603 24.4871 4.55643 20.6295 0.457136 18.2865C0.203473 18.1388 -0.227665 18.321 0.146407 18.7244C1.51209 20.2791 5.98771 24.0265 11.8297 24.0265C17.6757 24.0265 21.1535 21.0315 21.5886 20.5091C22.0207 19.9911 21.7155 19.7053 21.2787 19.8764H21.2788ZM24.1768 18.3738C23.8997 18.035 22.4919 17.9719 21.6059 18.0741C20.7185 18.1733 19.3865 18.6825 19.5023 18.9882C19.5617 19.1028 19.683 19.0514 20.2926 18.9999C20.9039 18.9427 22.6163 18.7398 22.9731 19.1777C23.3316 19.6187 22.4269 21.7193 22.2617 22.0581C22.1021 22.3969 22.3227 22.4843 22.6226 22.2586C22.9183 22.0331 23.4537 21.4489 23.8129 20.6223C24.1697 19.7912 24.3873 18.6318 24.1767 18.3738H24.1768Z" fill="#ABAEB1"/>
<path fill-rule="evenodd" clip-rule="evenodd" d="M14.3412 10.4683C14.3412 11.6781 14.3737 12.687 13.7225 13.7613C13.1968 14.6349 12.3641 15.1721 11.4338 15.1721C10.1638 15.1721 9.42422 14.2636 9.42422 12.9229C9.42422 10.2761 11.9501 9.7957 14.3412 9.7957V10.4683ZM17.6764 18.0372C17.4578 18.2206 17.1415 18.2338 16.895 18.1115C15.7972 17.2555 15.6017 16.858 14.9971 16.0413C13.1829 17.7796 11.899 18.2993 9.54522 18.2993C6.76346 18.2993 4.5957 16.6876 4.5957 13.46C4.5957 10.94 6.05179 9.22353 8.12168 8.38503C9.91733 7.64246 12.4246 7.51146 14.3412 7.30625V6.9044C14.3412 6.16625 14.4016 5.29277 13.9411 4.65515C13.5364 4.08299 12.7642 3.84713 12.085 3.84713C10.8244 3.84713 9.69867 4.45418 9.42422 5.71202C9.36833 5.99161 9.14977 6.26679 8.85208 6.27986L5.64232 5.95672C5.37258 5.89983 5.07489 5.69462 5.14931 5.30584C5.88892 1.65468 9.40088 0.553986 12.5454 0.553986C14.155 0.553986 16.2575 0.955835 17.5275 2.10016C19.137 3.51082 18.9835 5.39321 18.9835 7.44159V12.2808C18.9835 13.7352 19.6254 14.3728 20.2301 15.159C20.4441 15.4385 20.4907 15.7749 20.2208 15.9845C19.5463 16.5129 18.3461 17.4956 17.6857 18.046L17.6763 18.0372" fill="#ABAEB1"/>
<path d="M21.2788 19.8764C10.9603 24.4871 4.55643 20.6295 0.457136 18.2865C0.203473 18.1388 -0.227665 18.321 0.146407 18.7244C1.51209 20.2791 5.98771 24.0265 11.8297 24.0265C17.6757 24.0265 21.1535 21.0315 21.5886 20.5091C22.0207 19.9911 21.7155 19.7053 21.2787 19.8764H21.2788ZM24.1768 18.3738C23.8997 18.035 22.4919 17.9719 21.6059 18.0741C20.7185 18.1733 19.3865 18.6825 19.5023 18.9882C19.5617 19.1028 19.683 19.0514 20.2926 18.9999C20.9039 18.9427 22.6163 18.7398 22.9731 19.1777C23.3316 19.6187 22.4269 21.7193 22.2617 22.0581C22.1021 22.3969 22.3227 22.4843 22.6226 22.2586C22.9183 22.0331 23.4537 21.4489 23.8129 20.6223C24.1697 19.7912 24.3873 18.6318 24.1767 18.3738H24.1768Z" fill="#ABAEB1"/>
<path fill-rule="evenodd" clip-rule="evenodd" d="M14.3412 10.4683C14.3412 11.6781 14.3737 12.687 13.7225 13.7613C13.1968 14.6349 12.3641 15.1721 11.4338 15.1721C10.1638 15.1721 9.42422 14.2636 9.42422 12.9229C9.42422 10.2761 11.9501 9.7957 14.3412 9.7957V10.4683ZM17.6764 18.0372C17.4578 18.2206 17.1415 18.2338 16.895 18.1115C15.7972 17.2555 15.6017 16.858 14.9971 16.0413C13.1829 17.7796 11.899 18.2993 9.54522 18.2993C6.76346 18.2993 4.5957 16.6876 4.5957 13.46C4.5957 10.94 6.05179 9.22353 8.12168 8.38503C9.91733 7.64246 12.4246 7.51146 14.3412 7.30625V6.9044C14.3412 6.16625 14.4016 5.29277 13.9411 4.65515C13.5364 4.08299 12.7642 3.84713 12.085 3.84713C10.8244 3.84713 9.69867 4.45418 9.42422 5.71202C9.36833 5.99161 9.14977 6.26679 8.85208 6.27986L5.64232 5.95672C5.37258 5.89983 5.07489 5.69462 5.14931 5.30584C5.88892 1.65468 9.40088 0.553986 12.5454 0.553986C14.155 0.553986 16.2575 0.955835 17.5275 2.10016C19.137 3.51082 18.9835 5.39321 18.9835 7.44159V12.2808C18.9835 13.7352 19.6254 14.3728 20.2301 15.159C20.4441 15.4385 20.4907 15.7749 20.2208 15.9845C19.5463 16.5129 18.3461 17.4956 17.6857 18.046L17.6763 18.0372" fill="#ABAEB1"/>
</svg>
