<?xml version="1.0" encoding="utf-8"?>
<!-- Generator: Adobe Illustrator 17.0.0, SVG Export Plug-In . SVG Version: 6.00 Build 0)  -->
<!DOCTYPE svg PUBLIC "-//W3C//DTD SVG 1.1//EN" "http://www.w3.org/Graphics/SVG/1.1/DTD/svg11.dtd">
<svg version="1.1" id="Layer_1" xmlns="http://www.w3.org/2000/svg" xmlns:xlink="http://www.w3.org/1999/xlink" x="0px" y="0px"
	 width="93px" height="59px" viewBox="0 0 93 59" enable-background="new 0 0 93 59" xml:space="preserve">
<path fill="#369EFB" d="M82.078,6.188h-3.094v46.406h3.094V6.188z"/>
<path fill="#369EFB" d="M75.891,6.188h-3.094v46.406h3.094V6.188z"/>
<path fill="#369EFB" d="M69.703,6.188h-3.094v46.406h3.094V6.188z"/>
<path fill="#369EFB" d="M63.516,6.188h-3.094v46.406h3.094V6.188z"/>
<path fill="#369EFB" d="M57.328,6.188h-3.094v46.406h3.094V6.188z"/>
<path fill="#369EFB" d="M51.141,6.188h-3.094v46.406h3.094V6.188z"/>
<path fill="#369EFB" d="M44.953,6.188h-3.094v46.406h3.094V6.188z"/>
<path fill="#369EFB" d="M38.766,6.188h-3.094v46.406h3.094V6.188z"/>
<path fill="#369EFB" d="M32.578,6.188h-3.094v46.406h3.094V6.188z"/>
<path fill="#369EFB" d="M26.391,6.188h-3.094v46.406h3.094V6.188z"/>
<path fill="#369EFB" d="M20.203,6.188h-3.094v46.406h3.094V6.188z"/>
<path fill="#369EFB" d="M14.016,6.188h-3.094v46.406h3.094V6.188z"/>
<path fill="#369EFB" d="M92.906,1.547v6.188h-3.094V3.094h-4.641V0h6.188c0.41,0,0.804,0.163,1.094,0.453
	C92.743,0.743,92.906,1.137,92.906,1.547z"/>
<path fill="#369EFB" d="M1.641,0h6.188v3.094H3.188v4.641H0.094V1.547c0-0.41,0.163-0.804,0.453-1.094C0.837,0.163,1.23,0,1.641,0z"
	/>
<path fill="#369EFB" d="M89.813,51.047h3.094v6.188c0,0.41-0.163,0.804-0.453,1.094s-0.684,0.453-1.094,0.453h-6.188v-3.094h4.641
	V51.047z"/>
<path fill="#369EFB" d="M3.188,55.688h4.641v3.094H1.641c-0.41,0-0.804-0.163-1.094-0.453s-0.453-0.684-0.453-1.094v-6.188h3.094
	V55.688z"/>
</svg>
