<svg width="25" height="26" viewBox="0 0 25 26" fill="none" xmlns="http://www.w3.org/2000/svg">
<g clip-path="url(#clip0)">
<path d="M0.000194109 11.4789C0.000194109 8.39427 0.000194109 5.30994 0.000194109 2.22594C-0.0234817 1.7966 0.0435936 1.36706 0.197048 0.965384C0.350502 0.563706 0.58688 0.198897 0.890789 -0.105295C1.1947 -0.409487 1.55931 -0.64623 1.96084 -0.800058C2.36238 -0.953886 2.79183 -1.02133 3.22119 -0.998056C9.38985 -0.998056 15.5585 -0.998056 21.7272 -0.998056C22.1617 -1.02182 22.5963 -0.953884 23.0028 -0.798593C23.4093 -0.643303 23.7786 -0.404161 24.0865 -0.09675C24.3945 0.210661 24.6343 0.579502 24.7903 0.985708C24.9464 1.39191 25.0152 1.82638 24.9922 2.26092C25.0009 8.42958 25.0009 14.5983 24.9922 20.767C25.0145 21.2016 24.945 21.6361 24.7883 22.0421C24.6316 22.4481 24.3911 22.8167 24.0826 23.1236C23.774 23.4306 23.4043 23.6691 22.9974 23.8237C22.5906 23.9783 22.1557 24.0455 21.7212 24.0209C15.5525 24.0209 9.38386 24.0209 3.21519 24.0209C2.78561 24.0434 2.3561 23.9751 1.95471 23.8204C1.55331 23.6657 1.18904 23.4281 0.885662 23.1232C0.582287 22.8182 0.346632 22.4527 0.194057 22.0505C0.0414818 21.6483 -0.0245746 21.2184 0.000194109 20.7889C-0.00180589 17.6856 -0.00180589 14.5823 0.000194109 11.4789ZM15.5772 16.293C16.5434 16.9174 17.6994 17.1796 18.8405 17.0332C19.9816 16.8868 21.034 16.3411 21.8112 15.4929C22.5406 14.7045 22.9859 13.6951 23.0765 12.6249C23.1671 11.5546 22.8977 10.4847 22.3112 9.58495C21.7389 8.67469 20.8727 7.98737 19.8562 7.63695C19.1403 7.37741 18.3739 7.2875 17.6174 7.37426C16.8609 7.46102 16.1347 7.72208 15.4962 8.13695V7.47796C15.4962 6.08796 15.5052 4.69893 15.4832 3.30993C15.4832 3.13893 15.3162 2.83297 15.2062 2.82397C14.6462 2.77397 14.0792 2.80096 13.5062 2.80096V16.6219C14.6362 16.8609 15.3822 16.748 15.5782 16.293H15.5772ZM11.4132 13.3339C10.9022 13.3339 10.4472 13.36 9.99519 13.327C9.77535 13.2916 9.54995 13.3241 9.3491 13.4203C9.14826 13.5164 8.98152 13.6715 8.87118 13.8649C8.48846 14.3705 7.9395 14.7247 7.32112 14.865C6.70273 15.0054 6.05465 14.9228 5.49119 14.6319C4.92645 14.3456 4.47931 13.8712 4.22685 13.2905C3.97439 12.7098 3.93241 12.0592 4.10818 11.4509C4.2371 10.9184 4.53167 10.4406 4.94949 10.0862C5.3673 9.73185 5.88681 9.51922 6.43319 9.47893C6.94569 9.40685 7.46806 9.48736 7.93508 9.71038C8.40211 9.9334 8.79308 10.2891 9.05919 10.733C9.16932 10.9133 9.34489 11.044 9.54919 11.098C10.1492 11.143 10.7622 11.1149 11.3742 11.1149C11.1404 10.0341 10.5384 9.06814 9.67097 8.38225C8.80358 7.69637 7.72478 7.33317 6.61918 7.35491C5.38907 7.39106 4.21793 7.89021 3.33989 8.75249C2.46184 9.61478 1.94161 10.7767 1.88319 12.0059C1.8382 13.2261 2.25132 14.419 3.0413 15.35C3.83128 16.281 4.94098 16.8827 6.15219 17.0369C7.33007 17.1681 8.51528 16.8641 9.48451 16.182C10.4537 15.4999 11.1401 14.4869 11.4142 13.3339H11.4132Z" fill="white"/>
<path d="M17.6215 15.8108C17.1329 15.8329 16.645 15.7551 16.1875 15.5823C15.7299 15.4095 15.3124 15.1453 14.9604 14.8058C14.6083 14.4663 14.3291 14.0586 14.1399 13.6076C13.9506 13.1567 13.8552 12.6719 13.8595 12.1828C13.8626 11.6882 13.9636 11.1991 14.1566 10.7437C14.3496 10.2883 14.6308 9.87553 14.984 9.52928C15.3373 9.18302 15.7555 8.91006 16.2147 8.72618C16.6739 8.54229 17.1649 8.45113 17.6595 8.45787C18.1676 8.47157 18.6678 8.58766 19.1299 8.7993C19.5921 9.01094 20.0067 9.31374 20.3491 9.6895C20.6914 10.0653 20.9543 10.5062 21.1221 10.9861C21.2899 11.4659 21.3591 11.9747 21.3255 12.4819C21.2645 13.4103 20.8429 14.2781 20.1509 14.9001C19.4589 15.522 18.5512 15.8488 17.6215 15.8108Z" fill="white"/>
</g>
<defs>
<clipPath id="clip0">
<rect width="25" height="25.023" fill="white"/>
</clipPath>
</defs>
</svg>
