<?xml version="1.0" encoding="utf-8"?>
<!-- Generator: Adobe Illustrator 17.0.0, SVG Export Plug-In . SVG Version: 6.00 Build 0)  -->
<!DOCTYPE svg PUBLIC "-//W3C//DTD SVG 1.1//EN" "http://www.w3.org/Graphics/SVG/1.1/DTD/svg11.dtd">
<svg version="1.1" id="Layer_1" xmlns="http://www.w3.org/2000/svg" xmlns:xlink="http://www.w3.org/1999/xlink" x="0px" y="0px"
	 width="63px" height="78px" viewBox="0 0 63 78" enable-background="new 0 0 63 78" xml:space="preserve">
<circle fill="#369EFB" fill-opacity="0.08" cx="36.5" cy="51.5" r="26.5"/>
<g>
	<g>
		<defs>
			<rect id="SVGID_1_" y="0" width="42" height="59.876"/>
		</defs>
		<clipPath id="SVGID_2_">
			<use xlink:href="#SVGID_1_"  overflow="visible"/>
		</clipPath>
		<g clip-path="url(#SVGID_2_)">
			<path fill="#369EFB" d="M41.115,0H0.885C0.65,0.001,0.426,0.094,0.261,0.26C0.095,0.425,0.001,0.649,0,0.884V55.96
				c0.002,0.234,0.096,0.457,0.261,0.622c0.166,0.165,0.389,0.258,0.623,0.259h3.948l0.729,2.404c0.055,0.181,0.167,0.34,0.32,0.453
				c0.152,0.113,0.337,0.174,0.526,0.174h4.457c0.234-0.001,0.458-0.095,0.624-0.26c0.166-0.166,0.259-0.39,0.26-0.624v-2.147H30.25
				v2.15c0.001,0.234,0.095,0.459,0.26,0.624c0.166,0.166,0.39,0.259,0.624,0.26h4.457c0.19,0,0.374-0.062,0.526-0.174
				c0.152-0.113,0.264-0.272,0.32-0.453l0.73-2.404h3.948c0.234-0.001,0.458-0.095,0.624-0.261c0.165-0.166,0.259-0.39,0.26-0.624
				V0.884c-0.001-0.234-0.095-0.459-0.26-0.624C41.574,0.094,41.35,0,41.115,0L41.115,0z M40.23,13.036H21.884V1.768H40.23V13.036z
				 M1.768,1.768h18.347v11.268H1.768V1.768z M1.768,14.804h18.347v40.273H1.768V14.804z M9.979,58.107H7.063l-0.383-1.26h3.3v1.26
				H9.979z M34.936,58.107H32.02v-1.266h3.299L34.936,58.107z M21.884,55.077V14.804H40.23v40.273H21.884z"/>
			<path fill="#369EFB" d="M16.372,2.997c-0.141,0.001-0.275,0.057-0.375,0.156c-0.099,0.099-0.155,0.234-0.156,0.375v1.821
				c0.001,0.141,0.057,0.275,0.156,0.375c0.1,0.099,0.234,0.156,0.375,0.156c0.141-0.001,0.275-0.057,0.375-0.156
				c0.099-0.099,0.155-0.234,0.156-0.375V3.53c0-0.141-0.056-0.276-0.156-0.376C16.647,3.054,16.513,2.998,16.372,2.997z"/>
			<path fill="#369EFB" d="M25.627,5.881c0.141-0.001,0.275-0.057,0.375-0.156s0.156-0.234,0.156-0.375V3.531
				c-0.001-0.141-0.057-0.275-0.156-0.375C25.902,3.056,25.767,3,25.627,3c-0.141,0-0.276,0.056-0.375,0.156
				c-0.099,0.099-0.156,0.234-0.156,0.375V5.35c0,0.141,0.057,0.276,0.156,0.375C25.351,5.824,25.486,5.88,25.627,5.881z"/>
			<path fill="#369EFB" d="M16.372,36.257c0.141-0.001,0.275-0.057,0.375-0.156c0.099-0.099,0.155-0.234,0.156-0.375v-5.013
				c-0.001-0.141-0.057-0.275-0.156-0.375c-0.1-0.1-0.234-0.156-0.375-0.156c-0.141,0.001-0.275,0.057-0.375,0.156
				c-0.099,0.099-0.155,0.234-0.156,0.375v5.016c0.001,0.14,0.058,0.274,0.157,0.373C16.097,36.201,16.232,36.256,16.372,36.257z"/>
			<path fill="#369EFB" d="M25.627,30.18c-0.141,0.001-0.275,0.057-0.375,0.156c-0.099,0.099-0.156,0.234-0.156,0.375v5.016
				c0.001,0.141,0.057,0.275,0.156,0.375c0.099,0.099,0.234,0.156,0.375,0.156c0.141-0.001,0.275-0.057,0.375-0.156
				s0.156-0.234,0.156-0.375v-5.014c0-0.141-0.056-0.276-0.156-0.376C25.902,30.237,25.767,30.181,25.627,30.18z"/>
		</g>
	</g>
</g>
</svg>
