<svg width="21" height="20" viewBox="0 0 21 20" fill="none" xmlns="http://www.w3.org/2000/svg">
<path d="M20.4706 10.3658C20.4706 9.56185 20.4009 8.97518 20.2501 8.36679H10.4443V11.9954H16.2001C16.0841 12.8972 15.4574 14.2552 14.0649 15.1678L14.0454 15.2893L17.1458 17.5379L17.3606 17.558C19.3333 15.8523 20.4706 13.3426 20.4706 10.3658Z" fill="#ABAEB1"/>
<path d="M10.4442 19.9265C13.2641 19.9265 15.6314 19.0573 17.3605 17.558L14.0648 15.1678C13.1829 15.7436 11.9992 16.1456 10.4442 16.1456C7.68241 16.1456 5.33833 14.44 4.50273 12.0824L4.38025 12.0921L1.15642 14.428L1.11426 14.5377C2.8317 17.7318 6.35945 19.9265 10.4442 19.9265Z" fill="#ABAEB1"/>
<path d="M4.50247 12.0824C4.28199 11.474 4.15439 10.8221 4.15439 10.1485C4.15439 9.4749 4.28199 8.82307 4.49087 8.21468L4.48503 8.08511L1.2208 5.71176L1.114 5.75932C0.406159 7.08478 0 8.57321 0 10.1485C0 11.7238 0.406159 13.2122 1.114 14.5377L4.50247 12.0824Z" fill="#ABAEB1"/>
<path d="M10.4443 4.15141C12.4054 4.15141 13.7283 4.94449 14.4826 5.60726L17.4301 2.91291C15.6199 1.33759 13.2641 0.370667 10.4443 0.370667C6.35946 0.370667 2.8317 2.56523 1.11426 5.7593L4.49114 8.21466C5.33834 5.85712 7.68242 4.15141 10.4443 4.15141Z" fill="#ABAEB1"/>
</svg>
