<?xml version="1.0" encoding="utf-8"?>
<!-- Generator: Adobe Illustrator 17.0.0, SVG Export Plug-In . SVG Version: 6.00 Build 0)  -->
<!DOCTYPE svg PUBLIC "-//W3C//DTD SVG 1.1//EN" "http://www.w3.org/Graphics/SVG/1.1/DTD/svg11.dtd">
<svg version="1.1" id="Layer_1" xmlns="http://www.w3.org/2000/svg" xmlns:xlink="http://www.w3.org/1999/xlink" x="0px" y="0px"
	 width="64px" height="69px" viewBox="0 0 64 69" enable-background="new 0 0 64 69" xml:space="preserve">
<circle fill="#369EFB" fill-opacity="0.08" cx="37.5" cy="42.5" r="26.5"/>
<g>
	<defs>
		<rect id="SVGID_1_" x="0" y="0" width="42.38" height="54.426"/>
	</defs>
	<clipPath id="SVGID_2_">
		<use xlink:href="#SVGID_1_"  overflow="visible"/>
	</clipPath>
	<g clip-path="url(#SVGID_2_)">
		<path fill="#369EFB" d="M21.19,47.801c-0.528,0.024-1.055-0.061-1.549-0.249c-0.494-0.188-0.944-0.476-1.322-0.845
			c-0.378-0.369-0.677-0.812-0.877-1.301c-0.2-0.489-0.298-1.014-0.288-1.542c-0.011-0.528,0.087-1.054,0.288-1.543
			c0.2-0.489,0.499-0.932,0.877-1.301c0.378-0.369,0.828-0.657,1.322-0.845c0.494-0.188,1.021-0.273,1.549-0.249
			c0.528-0.024,1.055,0.061,1.549,0.25c0.494,0.188,0.944,0.476,1.322,0.845c0.378,0.369,0.677,0.812,0.877,1.301
			c0.2,0.489,0.298,1.014,0.287,1.542c0.011,0.528-0.087,1.053-0.288,1.542c-0.2,0.489-0.499,0.932-0.877,1.301
			c-0.378,0.369-0.828,0.656-1.322,0.845C22.244,47.74,21.717,47.825,21.19,47.801z M21.19,41.945
			c-0.263-0.023-0.527,0.01-0.776,0.097c-0.249,0.087-0.476,0.226-0.667,0.407c-0.191,0.182-0.341,0.402-0.44,0.646
			c-0.099,0.244-0.145,0.507-0.135,0.77c-0.01,0.263,0.036,0.526,0.135,0.77c0.099,0.244,0.249,0.464,0.44,0.646
			c0.191,0.181,0.418,0.32,0.667,0.407c0.249,0.087,0.513,0.12,0.776,0.097c0.262,0.023,0.527-0.01,0.775-0.097
			c0.249-0.087,0.476-0.226,0.667-0.407c0.191-0.182,0.341-0.402,0.44-0.646c0.099-0.244,0.145-0.507,0.135-0.77
			c0.01-0.263-0.036-0.526-0.135-0.77c-0.099-0.244-0.249-0.464-0.44-0.646c-0.191-0.182-0.418-0.32-0.667-0.407
			C21.716,41.955,21.452,41.922,21.19,41.945z"/>
		<path fill="#369EFB" d="M13.346,16.187c-0.249-0.001-0.489-0.093-0.674-0.26c-0.185-0.167-0.302-0.396-0.328-0.644
			c-0.027-0.266,0.052-0.531,0.221-0.738c0.168-0.207,0.412-0.339,0.677-0.368c4.904-0.522,9.622-2.166,13.788-4.805
			c0.226-0.143,0.499-0.191,0.76-0.133c0.261,0.058,0.488,0.218,0.632,0.444c0.143,0.226,0.191,0.499,0.133,0.76
			c-0.058,0.261-0.218,0.488-0.444,0.632c-4.43,2.804-9.446,4.551-14.659,5.106C13.417,16.185,13.381,16.187,13.346,16.187z"/>
		<path fill="#369EFB" d="M27.573,11.23c-0.173,0-0.343-0.044-0.493-0.128c-0.151-0.084-0.277-0.206-0.368-0.353l-1.091-1.777
			c-0.069-0.113-0.116-0.238-0.137-0.369c-0.021-0.131-0.016-0.265,0.015-0.393c0.031-0.129,0.087-0.25,0.165-0.358
			c0.078-0.107,0.176-0.198,0.289-0.267c0.113-0.069,0.238-0.116,0.369-0.137c0.131-0.021,0.265-0.016,0.393,0.015
			c0.129,0.031,0.25,0.087,0.358,0.165c0.107,0.078,0.198,0.176,0.267,0.289l1.088,1.777c0.14,0.228,0.184,0.501,0.123,0.762
			c-0.062,0.26-0.224,0.485-0.452,0.625C27.941,11.177,27.759,11.229,27.573,11.23z"/>
		<path fill="#369EFB" d="M10.88,16.313c-0.963,0-1.924-0.055-2.881-0.165c-0.132-0.015-0.259-0.056-0.375-0.12
			c-0.116-0.064-0.218-0.151-0.3-0.255c-0.082-0.104-0.143-0.223-0.18-0.35c-0.036-0.127-0.047-0.261-0.032-0.392
			c0.015-0.132,0.056-0.259,0.12-0.375c0.064-0.116,0.151-0.218,0.255-0.3c0.104-0.082,0.223-0.143,0.351-0.179
			c0.128-0.036,0.261-0.047,0.393-0.031c1.665,0.191,3.346,0.201,5.013,0.031c0.132-0.014,0.265-0.002,0.393,0.035
			c0.127,0.038,0.246,0.1,0.349,0.184c0.103,0.084,0.188,0.187,0.251,0.304s0.102,0.245,0.114,0.377
			c0.014,0.132,0.001,0.266-0.037,0.393c-0.038,0.127-0.101,0.246-0.185,0.349c-0.084,0.103-0.187,0.188-0.304,0.251
			c-0.117,0.063-0.245,0.102-0.377,0.115C12.595,16.27,11.738,16.313,10.88,16.313z"/>
		<path fill="#369EFB" d="M13.117,18.103c-0.133,0-0.264-0.026-0.386-0.077c-0.122-0.051-0.234-0.125-0.327-0.219
			c-0.094-0.094-0.168-0.205-0.219-0.328c-0.051-0.123-0.076-0.254-0.076-0.387c0-0.715,0.085-1.428,0.253-2.123l1.968,0.45
			l-0.006,0.026c-0.13,0.539-0.196,1.092-0.196,1.647c0,0.133-0.026,0.264-0.076,0.387c-0.051,0.123-0.125,0.234-0.219,0.328
			c-0.094,0.094-0.205,0.168-0.328,0.219C13.381,18.077,13.25,18.103,13.117,18.103z"/>
		<path fill="#369EFB" d="M29.261,18.101c-0.133,0-0.264-0.026-0.386-0.077c-0.122-0.051-0.234-0.125-0.327-0.219
			c-0.094-0.094-0.168-0.205-0.219-0.327c-0.051-0.122-0.077-0.254-0.076-0.386c-0.001-0.816-0.074-1.63-0.22-2.432
			c-0.048-0.263,0.011-0.535,0.163-0.755c0.152-0.22,0.386-0.371,0.649-0.419c0.263-0.047,0.534,0.012,0.754,0.164
			c0.22,0.152,0.37,0.385,0.419,0.648c0.168,0.921,0.252,1.856,0.252,2.792c0,0.268-0.106,0.525-0.295,0.714
			C29.786,17.994,29.529,18.101,29.261,18.101z"/>
		<path fill="#369EFB" d="M26.482,9.453c-0.16,0-0.319-0.038-0.461-0.111c-0.143-0.073-0.266-0.18-0.359-0.31
			c-0.813-1.135-1.794-2.14-2.908-2.981c-0.106-0.08-0.195-0.18-0.262-0.294c-0.067-0.114-0.111-0.24-0.13-0.372
			c-0.018-0.131-0.011-0.265,0.023-0.393c0.033-0.128,0.092-0.249,0.171-0.354c0.08-0.106,0.179-0.195,0.294-0.262
			c0.114-0.067,0.24-0.111,0.372-0.13c0.131-0.018,0.265-0.011,0.393,0.023c0.128,0.033,0.249,0.092,0.354,0.171
			c1.278,0.963,2.403,2.115,3.336,3.416c0.156,0.217,0.219,0.488,0.176,0.752c-0.043,0.264-0.189,0.5-0.406,0.657
			C26.901,9.387,26.694,9.453,26.482,9.453z"/>
		<path fill="#369EFB" d="M7.401,22.41c-0.058,0-0.116-0.005-0.174-0.015c-0.131-0.023-0.256-0.071-0.368-0.142
			c-0.112-0.071-0.209-0.164-0.285-0.273c-0.076-0.109-0.13-0.231-0.159-0.361c-0.029-0.13-0.032-0.264-0.009-0.395
			c0.243-1.391,0.366-2.855,0.497-4.404c0.364-4.319,0.742-8.784,3.77-12.191c0.088-0.099,0.195-0.18,0.314-0.238
			c0.119-0.058,0.249-0.092,0.381-0.099c0.132-0.008,0.265,0.011,0.39,0.054c0.125,0.044,0.241,0.111,0.34,0.2
			c0.2,0.178,0.321,0.428,0.337,0.695c0.016,0.267-0.075,0.53-0.253,0.73c-2.582,2.907-2.93,7.033-3.267,11.022
			c-0.129,1.524-0.262,3.1-0.519,4.579c-0.041,0.234-0.162,0.447-0.344,0.6C7.869,22.325,7.639,22.409,7.401,22.41z"/>
		<path fill="#369EFB" d="M5.407,29.503c-0.123,0-0.245-0.022-0.36-0.066c-0.25-0.096-0.451-0.286-0.56-0.53
			c-0.109-0.244-0.117-0.521-0.022-0.771c0.858-2.242,1.509-4.558,1.946-6.918c0.024-0.13,0.073-0.255,0.145-0.366
			c0.072-0.111,0.165-0.207,0.275-0.283c0.109-0.075,0.232-0.128,0.362-0.156c0.13-0.028,0.264-0.029,0.394-0.005
			c0.263,0.049,0.495,0.201,0.646,0.421c0.151,0.22,0.209,0.491,0.16,0.754c-0.458,2.48-1.142,4.914-2.042,7.27
			c-0.073,0.191-0.202,0.355-0.37,0.471C5.811,29.441,5.612,29.503,5.407,29.503z"/>
		<path fill="#369EFB" d="M30.952,6.313c-0.142,0-0.282-0.03-0.412-0.087c-0.129-0.058-0.245-0.142-0.34-0.248
			c-1.141-1.255-2.533-2.257-4.086-2.939c-1.553-0.682-3.232-1.03-4.929-1.022c-1.695-0.008-3.374,0.34-4.926,1.022
			c-1.552,0.682-2.943,1.683-4.084,2.938c-0.088,0.099-0.195,0.179-0.315,0.237c-0.12,0.057-0.249,0.091-0.382,0.098
			c-0.132,0.007-0.265-0.012-0.39-0.056c-0.125-0.044-0.24-0.113-0.339-0.201c-0.199-0.179-0.319-0.429-0.333-0.696
			c-0.014-0.267,0.078-0.529,0.257-0.728c1.329-1.466,2.951-2.636,4.762-3.434c1.811-0.798,3.769-1.206,5.748-1.198
			c1.979-0.009,3.939,0.399,5.75,1.197c1.812,0.798,3.435,1.967,4.766,3.433c0.179,0.199,0.271,0.461,0.257,0.728
			c-0.014,0.267-0.134,0.518-0.333,0.696C31.44,6.22,31.201,6.313,30.952,6.313z"/>
		<path fill="#369EFB" d="M34.978,22.41c-0.238,0-0.468-0.083-0.65-0.237c-0.182-0.153-0.304-0.365-0.345-0.6
			c-0.257-1.479-0.39-3.055-0.519-4.579c-0.336-3.99-0.689-8.112-3.267-11.021c-0.178-0.2-0.269-0.463-0.253-0.73
			c0.016-0.267,0.137-0.517,0.337-0.695c0.2-0.178,0.463-0.269,0.73-0.253c0.267,0.016,0.517,0.137,0.695,0.337
			c3.03,3.409,3.408,7.874,3.772,12.193c0.13,1.549,0.255,3.011,0.497,4.404c0.046,0.264-0.015,0.535-0.17,0.754
			c-0.154,0.219-0.389,0.368-0.652,0.414C35.094,22.405,35.036,22.409,34.978,22.41z"/>
		<path fill="#369EFB" d="M36.97,29.503c-0.204,0-0.404-0.062-0.572-0.178c-0.168-0.116-0.297-0.28-0.37-0.471
			c-0.9-2.356-1.584-4.79-2.043-7.271c-0.048-0.263,0.01-0.535,0.161-0.756c0.152-0.22,0.385-0.372,0.648-0.42
			c0.263-0.048,0.535,0.01,0.755,0.162c0.22,0.152,0.371,0.385,0.42,0.648c0.437,2.36,1.087,4.675,1.942,6.916
			c0.047,0.124,0.07,0.255,0.066,0.388c-0.004,0.132-0.034,0.263-0.088,0.383s-0.131,0.23-0.228,0.321
			c-0.096,0.091-0.209,0.162-0.333,0.209C37.215,29.479,37.093,29.503,36.97,29.503z"/>
		<path fill="#369EFB" d="M7.064,54.426H1.009c-0.268,0-0.524-0.106-0.714-0.296C0.106,53.941,0,53.685,0,53.417
			c0-0.268,0.106-0.524,0.296-0.713c0.189-0.189,0.446-0.296,0.714-0.296h6.055c0.268,0,0.524,0.106,0.714,0.296
			c0.189,0.189,0.296,0.446,0.296,0.713c0,0.268-0.106,0.524-0.296,0.714C7.588,54.32,7.331,54.426,7.064,54.426z"/>
		<path fill="#369EFB" d="M41.369,54.426h-6.054c-0.268,0-0.524-0.106-0.714-0.296c-0.189-0.189-0.296-0.446-0.296-0.714
			c0-0.268,0.106-0.524,0.296-0.713c0.189-0.189,0.446-0.296,0.714-0.296h6.055c0.268,0,0.524,0.106,0.714,0.296
			c0.189,0.189,0.295,0.446,0.295,0.713c0,0.268-0.106,0.524-0.295,0.714C41.895,54.32,41.638,54.426,41.369,54.426L41.369,54.426z"
			/>
		<path fill="#369EFB" d="M22.504,42.146c-0.17,0-0.338-0.043-0.487-0.126c-0.149-0.083-0.275-0.201-0.365-0.346
			c-0.091-0.144-0.143-0.309-0.153-0.479c-0.01-0.17,0.024-0.34,0.098-0.493l5.142-10.662c0.116-0.241,0.323-0.426,0.576-0.514
			c0.253-0.088,0.53-0.073,0.771,0.043c0.119,0.058,0.226,0.138,0.314,0.237c0.088,0.099,0.156,0.214,0.2,0.339
			c0.044,0.125,0.062,0.258,0.055,0.39c-0.008,0.132-0.041,0.262-0.099,0.381l-5.145,10.66c-0.082,0.17-0.211,0.314-0.371,0.415
			C22.879,42.093,22.693,42.146,22.504,42.146z"/>
		<path fill="#369EFB" d="M19.875,42.147c-0.19,0-0.376-0.053-0.537-0.154c-0.161-0.101-0.29-0.245-0.372-0.416l-5.142-10.659
			c-0.116-0.241-0.132-0.518-0.044-0.771c0.088-0.253,0.273-0.46,0.514-0.576c0.241-0.116,0.518-0.131,0.771-0.043
			c0.253,0.088,0.46,0.273,0.576,0.514l5.142,10.662c0.058,0.119,0.091,0.249,0.099,0.381c0.008,0.132-0.011,0.265-0.055,0.39
			c-0.044,0.125-0.112,0.24-0.2,0.339c-0.088,0.099-0.195,0.179-0.315,0.237C20.176,42.115,20.026,42.148,19.875,42.147z"/>
		<path fill="#369EFB" d="M34.581,34.381c-0.08,0-0.16-0.01-0.238-0.028c-1.84-0.445-3.701-0.794-5.577-1.046
			c-0.132-0.017-0.258-0.06-0.373-0.127c-0.115-0.066-0.215-0.155-0.296-0.26c-0.081-0.105-0.14-0.226-0.174-0.354
			c-0.034-0.128-0.042-0.262-0.025-0.394c0.018-0.132,0.061-0.259,0.128-0.374c0.067-0.115,0.155-0.216,0.261-0.296
			c0.106-0.081,0.226-0.14,0.354-0.174c0.128-0.034,0.262-0.043,0.394-0.025c1.945,0.262,3.876,0.625,5.784,1.087
			c0.129,0.031,0.25,0.087,0.358,0.166c0.107,0.078,0.198,0.177,0.267,0.29c0.069,0.113,0.115,0.239,0.136,0.37
			c0.02,0.131,0.015,0.265-0.016,0.394c-0.054,0.22-0.18,0.415-0.358,0.554C35.026,34.304,34.807,34.38,34.581,34.381z"/>
		<path fill="#369EFB" d="M7.798,34.381c-0.226,0-0.446-0.077-0.623-0.217s-0.303-0.336-0.356-0.556
			c-0.063-0.26-0.02-0.535,0.12-0.763c0.139-0.229,0.364-0.392,0.624-0.455c1.908-0.462,3.838-0.825,5.784-1.087
			c0.265-0.035,0.534,0.036,0.746,0.198c0.213,0.162,0.352,0.402,0.388,0.667c0.035,0.265-0.036,0.534-0.198,0.746
			s-0.402,0.352-0.668,0.388c-1.876,0.253-3.737,0.603-5.577,1.049C7.959,34.372,7.879,34.382,7.798,34.381z"/>
		<path fill="#369EFB" d="M31.856,37.641c-0.164,0-0.326-0.04-0.472-0.117c-0.145-0.077-0.27-0.188-0.362-0.324l-4.209-6.154
			c-0.075-0.109-0.128-0.232-0.155-0.362c-0.027-0.13-0.029-0.263-0.004-0.394c0.024-0.13,0.074-0.254,0.147-0.365
			s0.166-0.207,0.276-0.281c0.221-0.15,0.493-0.207,0.755-0.158c0.263,0.049,0.495,0.201,0.647,0.421l4.209,6.154
			c0.104,0.152,0.164,0.328,0.174,0.512c0.01,0.183-0.029,0.366-0.115,0.528c-0.085,0.162-0.213,0.299-0.37,0.394
			C32.219,37.59,32.039,37.64,31.856,37.641z"/>
		<path fill="#369EFB" d="M28.752,38.42c-0.225,0-0.443-0.076-0.62-0.215c-0.177-0.139-0.303-0.333-0.357-0.551
			c-0.033-0.129-0.039-0.262-0.02-0.394c0.019-0.131,0.064-0.257,0.132-0.371c0.068-0.114,0.158-0.213,0.265-0.292
			c0.107-0.079,0.228-0.136,0.357-0.168l3.103-0.775c0.129-0.032,0.262-0.039,0.393-0.019c0.131,0.02,0.257,0.064,0.371,0.133
			c0.114,0.068,0.213,0.158,0.292,0.265c0.079,0.106,0.136,0.227,0.168,0.356c0.032,0.129,0.039,0.262,0.02,0.394
			c-0.019,0.131-0.065,0.257-0.133,0.371c-0.068,0.114-0.158,0.213-0.265,0.292c-0.107,0.079-0.228,0.136-0.356,0.168l-3.104,0.777
			C28.918,38.41,28.835,38.42,28.752,38.42z"/>
		<path fill="#369EFB" d="M13.627,38.42c-0.083,0-0.166-0.01-0.246-0.03l-3.102-0.778c-0.129-0.032-0.25-0.089-0.357-0.167
			c-0.107-0.079-0.197-0.178-0.266-0.292c-0.068-0.114-0.114-0.24-0.133-0.371c-0.02-0.131-0.013-0.265,0.019-0.394
			c0.065-0.259,0.231-0.482,0.461-0.62c0.229-0.138,0.504-0.179,0.764-0.114l3.105,0.781c0.129,0.032,0.25,0.089,0.356,0.168
			c0.106,0.079,0.196,0.178,0.265,0.292s0.113,0.24,0.133,0.371c0.02,0.131,0.013,0.265-0.019,0.393
			c-0.055,0.217-0.181,0.41-0.359,0.548C14.069,38.345,13.851,38.42,13.627,38.42z"/>
		<path fill="#369EFB" d="M10.523,37.642c-0.183,0-0.363-0.051-0.52-0.146c-0.157-0.095-0.285-0.231-0.37-0.393
			c-0.085-0.162-0.124-0.345-0.114-0.528c0.011-0.183,0.071-0.36,0.175-0.511l4.204-6.152c0.151-0.22,0.384-0.372,0.647-0.421
			c0.263-0.049,0.534,0.007,0.755,0.158c0.109,0.075,0.203,0.17,0.276,0.281c0.073,0.111,0.122,0.235,0.147,0.366
			c0.024,0.13,0.023,0.264-0.004,0.394c-0.027,0.13-0.08,0.253-0.155,0.362l-4.209,6.154c-0.093,0.135-0.217,0.245-0.362,0.321
			C10.848,37.602,10.687,37.642,10.523,37.642z"/>
		<path fill="#369EFB" d="M1.674,41.4c-0.035,0-0.07-0.002-0.105-0.005c-0.132-0.013-0.26-0.053-0.376-0.116
			c-0.117-0.063-0.22-0.148-0.303-0.251s-0.146-0.221-0.184-0.348c-0.038-0.127-0.05-0.26-0.037-0.392
			c0.194-1.866,0.961-3.627,2.195-5.04s2.875-2.411,4.698-2.855c0.129-0.032,0.263-0.038,0.394-0.018
			c0.131,0.02,0.257,0.066,0.37,0.135s0.212,0.16,0.29,0.267c0.078,0.107,0.134,0.229,0.165,0.358
			c0.063,0.26,0.02,0.535-0.119,0.763c-0.139,0.229-0.364,0.393-0.624,0.456c-1.417,0.347-2.692,1.123-3.651,2.222
			s-1.555,2.468-1.706,3.919c-0.026,0.249-0.143,0.479-0.329,0.646C2.166,41.308,1.924,41.4,1.674,41.4z"/>
		<path fill="#369EFB" d="M1.009,54.426c-0.268,0-0.524-0.106-0.713-0.295C0.106,53.942,0,53.685,0,53.417
			c-0.001-4.384,0.223-8.766,0.67-13.128c0.012-0.133,0.051-0.261,0.113-0.379c0.062-0.118,0.148-0.221,0.251-0.305
			c0.103-0.084,0.222-0.147,0.349-0.184c0.128-0.038,0.261-0.049,0.394-0.035c0.132,0.013,0.26,0.053,0.377,0.116
			s0.22,0.148,0.304,0.251c0.084,0.103,0.147,0.221,0.185,0.348c0.038,0.127,0.051,0.26,0.037,0.392
			c-0.44,4.294-0.661,8.608-0.66,12.924c0,0.132-0.026,0.264-0.077,0.386c-0.051,0.122-0.125,0.234-0.219,0.327
			c-0.094,0.094-0.205,0.168-0.328,0.219C1.272,54.4,1.141,54.426,1.009,54.426z"/>
		<path fill="#369EFB" d="M40.704,41.4c-0.249-0.001-0.49-0.093-0.675-0.261c-0.185-0.167-0.302-0.397-0.328-0.645
			c-0.151-1.451-0.747-2.82-1.706-3.919c-0.959-1.099-2.234-1.875-3.652-2.222c-0.129-0.031-0.25-0.087-0.357-0.166
			c-0.107-0.078-0.198-0.177-0.267-0.29c-0.069-0.113-0.115-0.239-0.135-0.37c-0.02-0.131-0.015-0.265,0.017-0.394
			c0.031-0.129,0.087-0.251,0.165-0.358c0.078-0.107,0.177-0.198,0.29-0.267c0.113-0.069,0.239-0.115,0.371-0.135
			c0.131-0.02,0.265-0.014,0.394,0.018c1.823,0.445,3.463,1.443,4.697,2.856c1.234,1.414,2,3.174,2.194,5.04
			c0.014,0.132,0.001,0.265-0.037,0.392c-0.038,0.127-0.101,0.246-0.185,0.348c-0.084,0.103-0.187,0.188-0.304,0.251
			c-0.117,0.063-0.245,0.102-0.377,0.115C40.774,41.398,40.739,41.4,40.704,41.4z"/>
		<path fill="#369EFB" d="M41.37,54.426c-0.268,0-0.524-0.106-0.713-0.295c-0.189-0.189-0.295-0.446-0.295-0.713
			c0-4.316-0.22-8.63-0.659-12.924c-0.014-0.132-0.001-0.265,0.037-0.392c0.038-0.127,0.101-0.245,0.184-0.348
			c0.084-0.103,0.187-0.188,0.303-0.251c0.117-0.063,0.244-0.102,0.376-0.116c0.132-0.015,0.266-0.003,0.394,0.035
			c0.127,0.038,0.246,0.1,0.349,0.185c0.103,0.084,0.188,0.188,0.251,0.305c0.063,0.117,0.101,0.246,0.113,0.379
			c0.447,4.362,0.671,8.744,0.67,13.129c-0.001,0.267-0.108,0.523-0.297,0.712C41.894,54.32,41.638,54.426,41.37,54.426z"/>
		<path fill="#369EFB" d="M5.409,29.503c-0.208,0-0.411-0.064-0.581-0.184c-0.17-0.12-0.299-0.289-0.369-0.484
			c-0.09-0.252-0.077-0.529,0.037-0.771c0.114-0.242,0.319-0.429,0.571-0.52c2.092-0.752,4.233-1.357,6.409-1.81
			c0.262-0.055,0.534-0.003,0.758,0.143c0.224,0.146,0.38,0.375,0.435,0.637c0.027,0.13,0.028,0.263,0.003,0.394
			c-0.025,0.13-0.075,0.254-0.148,0.365c-0.073,0.111-0.166,0.206-0.276,0.281c-0.109,0.074-0.233,0.127-0.362,0.154
			c-2.083,0.435-4.134,1.016-6.137,1.736C5.64,29.482,5.525,29.502,5.409,29.503z"/>
		<path fill="#369EFB" d="M36.971,29.503c-0.117,0-0.232-0.021-0.342-0.06c-2.003-0.72-4.054-1.299-6.138-1.733
			c-0.13-0.027-0.253-0.08-0.363-0.154c-0.11-0.075-0.203-0.17-0.276-0.281c-0.073-0.111-0.123-0.235-0.147-0.366
			c-0.024-0.13-0.023-0.264,0.004-0.394c0.027-0.13,0.079-0.253,0.153-0.363c0.075-0.11,0.17-0.204,0.281-0.276
			c0.111-0.073,0.235-0.123,0.366-0.147c0.13-0.024,0.264-0.023,0.394,0.004c2.176,0.454,4.317,1.059,6.408,1.81
			c0.125,0.045,0.239,0.114,0.337,0.203c0.098,0.089,0.178,0.197,0.234,0.317s0.089,0.25,0.095,0.382
			c0.006,0.132-0.014,0.265-0.059,0.389c-0.069,0.196-0.198,0.366-0.368,0.486C37.381,29.438,37.179,29.502,36.971,29.503z"/>
		<path fill="#369EFB" d="M21.133,29.441c-1.616-0.007-3.182-0.556-4.449-1.559c-2.832-2.196-4.503-6.123-4.576-10.773
			c-0.002-0.133,0.022-0.264,0.071-0.388c0.049-0.123,0.122-0.236,0.214-0.331c0.092-0.095,0.203-0.171,0.325-0.224
			c0.122-0.053,0.253-0.081,0.385-0.083c0.133-0.004,0.266,0.019,0.39,0.067c0.124,0.048,0.238,0.121,0.333,0.214
			c0.096,0.093,0.172,0.204,0.224,0.327c0.052,0.123,0.079,0.255,0.079,0.388c0.029,1.91,0.459,6.626,3.793,9.209
			c2.428,1.88,5.611,1.397,7.738-1.176c2.079-2.512,2.557-5.755,2.592-8.036c0.007-0.267,0.118-0.52,0.31-0.706
			c0.191-0.186,0.448-0.29,0.715-0.289c0.133,0.002,0.264,0.03,0.386,0.082c0.122,0.053,0.232,0.129,0.325,0.224
			c0.092,0.095,0.165,0.208,0.214,0.331c0.049,0.124,0.073,0.255,0.071,0.388c-0.04,2.602-0.603,6.328-3.055,9.291
			c-0.725,0.927-1.647,1.681-2.699,2.207C23.466,29.13,22.31,29.416,21.133,29.441z"/>
		<path fill="#369EFB" d="M33.604,44.396h2.943v2.946h-2.943v2.943H30.66v-2.943h-2.943v-2.946h2.943v-2.94h2.943V44.396z"/>
	</g>
</g>
</svg>
