<svg width="17" height="17" viewBox="0 0 17 17" fill="none" xmlns="http://www.w3.org/2000/svg">
<path d="M1.6319 15.5457C2.24235 16.2119 3.09122 16.6101 3.99377 16.6535C4.89632 16.697 5.77951 16.3822 6.45115 15.7778L6.96877 15.2601C7.54939 14.6278 7.86784 13.7983 7.85955 12.9399C7.85126 12.0814 7.51687 11.2583 6.92415 10.6372C7.41251 9.91093 7.96508 9.22993 8.57519 8.60243C9.1997 7.99076 9.87438 7.43251 10.5921 6.93354C11.2118 7.53385 12.0374 7.87469 12.9001 7.8863C13.7628 7.89791 14.5973 7.57943 15.2329 6.99601L15.7505 6.47839C16.355 5.80675 16.6698 4.92356 16.6263 4.021C16.5828 3.11845 16.1847 2.26959 15.5185 1.65913L14.626 0.766675C14.2569 0.404499 13.7907 0.156984 13.2839 0.0540399C12.7771 -0.0489037 12.2514 -0.00286947 11.7702 0.18658C9.17055 1.27282 6.80191 2.84485 4.79119 4.81842C2.82437 6.83938 1.26138 9.21718 0.186122 11.8242C-0.00332707 12.3054 -0.0493615 12.8312 0.0535821 13.338C0.156526 13.8448 0.404041 14.3109 0.766217 14.68L1.6319 15.5457ZM1.83716 12.5025C1.97103 12.1812 2.16737 11.726 2.43511 11.1816C2.52435 11.0031 2.63145 10.8157 2.73854 10.6105C3.6207 8.94928 4.73563 7.42263 6.04955 6.07678C6.79133 5.34942 7.59124 4.68381 8.44133 4.08661C8.9411 3.72963 9.44087 3.41727 9.90495 3.1406C10.369 2.86394 10.7974 2.65868 11.1544 2.46234C11.6988 2.1946 12.1539 1.99826 12.4752 1.86439C12.626 1.8051 12.7909 1.79125 12.9495 1.82455C13.1081 1.85786 13.2535 1.93686 13.3677 2.05181L14.2601 2.94426C14.591 3.22073 14.7998 3.61623 14.8416 4.04536C14.8833 4.47449 14.7546 4.90283 14.4832 5.23787L13.9656 5.7555C13.6295 6.02583 13.2004 6.15303 12.7713 6.10961C12.3421 6.06619 11.9472 5.85564 11.672 5.52346L10.8242 4.631C10.3612 4.90248 9.91418 5.20046 9.4855 5.52346C8.7113 6.05319 7.98557 6.6505 7.31683 7.30837C6.2854 8.38744 5.38657 9.58587 4.63947 10.8782L5.46053 11.6992C5.79271 11.9744 6.00326 12.3693 6.04668 12.7985C6.0901 13.2277 5.9629 13.6567 5.69257 13.9929L5.17494 14.5105C4.83989 14.7818 4.41156 14.9105 3.98243 14.8688C3.5533 14.8271 3.1578 14.6182 2.88133 14.2874L1.98888 13.3949C1.87991 13.2768 1.80757 13.1296 1.78064 12.9712C1.75371 12.8128 1.77334 12.6499 1.83716 12.5025V12.5025Z" fill="#8492A6"/>
</svg>
