<svg width="17" height="20" viewBox="0 0 17 20" fill="none" xmlns="http://www.w3.org/2000/svg">
<path fill-rule="evenodd" clip-rule="evenodd" d="M8.49591 0C6.12714 0 4.2002 1.94254 4.2002 4.33022V5.5016C4.2002 7.88928 6.1271 9.83183 8.49591 9.83183C10.8647 9.83183 12.7923 7.88928 12.7923 5.5016V4.33022C12.7923 1.94254 10.8647 0 8.49591 0ZM11.4907 5.5016C11.4907 7.17147 10.1475 8.53026 8.49591 8.53026C6.84491 8.53026 5.50172 7.17147 5.50172 5.5016V4.33022C5.50172 2.66036 6.84491 1.30156 8.49591 1.30156C10.1475 1.30156 11.4907 2.66036 11.4907 4.33022V5.5016ZM15.1189 16.9435C15.1922 16.8977 15.2547 16.8382 15.3036 16.7696C15.9228 16.1713 16.4654 15.4875 16.9102 14.7301C17.03 14.5264 17.03 14.2745 16.9102 14.0709C15.7054 12.0212 13.7951 10.4936 11.5219 9.75966C11.4093 9.70463 11.2861 9.68488 11.1668 9.69776C11.0174 9.71004 10.874 9.77397 10.7637 9.88254C10.0276 10.6067 9.15566 11.2154 8.63463 11.552C8.59221 11.5434 8.5483 11.5388 8.50332 11.5388C8.46262 11.5388 8.4228 11.5425 8.38417 11.5497C7.81939 11.1722 6.8593 10.4977 6.23631 9.88319C6.10604 9.75443 5.93056 9.68821 5.75287 9.69577C5.66856 9.69756 5.58394 9.71565 5.50398 9.75096C3.2169 10.4827 1.29621 12.0143 0.0897983 14.0709C-0.0299328 14.2746 -0.0299328 14.5258 0.0897983 14.7294C0.53585 15.4895 1.08031 16.1754 1.70179 16.7751C1.74933 16.8407 1.8092 16.8976 1.87922 16.9421C3.6403 18.558 5.97692 19.5033 8.43473 19.5195C8.45727 19.5219 8.48016 19.5231 8.50332 19.5231C8.5267 19.5231 8.54978 19.5219 8.57253 19.5195C11.0264 19.5009 13.3595 18.5564 15.1189 16.9435ZM9.1541 18.1928C10.9694 18.0518 12.6786 17.3298 14.0304 16.1697C13.9209 15.8112 13.8019 15.4588 13.6744 15.1179C13.0247 13.3804 12.18 12.0114 11.2633 11.1958C10.4552 11.9155 9.60793 12.48 9.1541 12.7645V18.1928ZM7.85254 12.7601C7.38984 12.457 6.48318 11.8401 5.74025 11.1952C4.81706 12.0095 3.99003 13.3532 3.32861 15.1199C3.20319 15.4545 3.08377 15.8074 2.97188 16.1726C4.32503 17.3328 6.03597 18.0542 7.85254 18.1934V12.7601ZM13.917 12.5308C14.2739 13.166 14.6012 13.8788 14.894 14.6617C14.9501 14.812 15.0047 14.9643 15.0578 15.1181C15.2449 14.8894 15.4204 14.6498 15.5832 14.4001C15.1217 13.6922 14.5594 13.0636 13.917 12.5308ZM1.41607 14.4001C1.87963 13.6877 2.4459 13.0555 3.09357 12.5205C2.73424 13.1585 2.40455 13.8752 2.10972 14.6631C2.05369 14.8132 1.9987 14.9665 1.94492 15.1225C1.75656 14.8925 1.5799 14.6514 1.41607 14.4001ZM10.874 14.5765H10.3295C9.96961 14.5765 9.67871 14.8674 9.67871 15.2273C9.67871 15.5872 9.96961 15.8781 10.3295 15.8781H10.874V16.4424C10.874 16.8022 11.1649 17.0931 11.5248 17.0931C11.884 17.0931 12.1756 16.8016 12.1756 16.4424V15.8781H12.7588C13.118 15.8781 13.4096 15.5872 13.4096 15.2273C13.4096 14.8674 13.1187 14.5765 12.7588 14.5765H12.1756V14.013C12.1755 13.6532 11.8846 13.3623 11.5248 13.3623C11.1649 13.3623 10.874 13.6532 10.874 14.013V14.5765Z" fill="#8492A6"/>
</svg>
