<svg width="16" height="12" viewBox="0 0 16 12" fill="none" xmlns="http://www.w3.org/2000/svg">
<path d="M14.0654 0H13.8691H2.13094H1.93458C1.39978 0.0609921 0.906407 0.317521 0.549304 0.720268C0.192201 1.12302 -0.00342145 1.64355 4.52999e-05 2.18181V9.45449C4.52999e-05 10.0331 0.229913 10.5881 0.639081 10.9973C1.04825 11.4064 1.6032 11.6363 2.18185 11.6363H13.8181C14.3968 11.6363 14.9518 11.4064 15.3609 10.9973C15.7701 10.5881 16 10.0331 16 9.45449V2.18181C16.0034 1.64355 15.8078 1.12302 15.4507 0.720268C15.0936 0.317521 14.6002 0.0609921 14.0654 0ZM13.7309 1.45454L8.72727 6.45815C8.59101 6.5936 8.40668 6.66963 8.21454 6.66963C8.02241 6.66963 7.83808 6.5936 7.70182 6.45815L2.69821 1.45454H13.7309ZM14.5454 9.45449C14.5454 9.64738 14.4688 9.83236 14.3324 9.96875C14.196 10.1051 14.011 10.1818 13.8181 10.1818H2.18185C1.98897 10.1818 1.80398 10.1051 1.66759 9.96875C1.53121 9.83236 1.45458 9.64738 1.45458 9.45449V2.47999L6.45819 7.48359C6.86728 7.89218 7.42182 8.12167 8 8.12167C8.57818 8.12167 9.13272 7.89218 9.54181 7.48359L14.5454 2.47999V9.45449Z" fill="#8492A6"/>
</svg>
