<svg width="16" height="19" viewBox="0 0 16 19" fill="none" xmlns="http://www.w3.org/2000/svg">
<path d="M4.9 12.5667C4.9 13.2461 5.32562 13.8271 5.92359 14.0588C6.14232 16.355 7.87795 18.1667 10 18.1667C12.1221 18.1667 13.8577 16.355 14.0764 14.0588C14.6744 13.8271 15.1 13.2461 15.1 12.5667C15.1 11.6843 14.3823 10.9667 13.5 10.9667C12.6177 10.9667 11.9 11.6843 11.9 12.5667C11.9 13.2264 12.3012 13.7936 12.872 14.0381C12.6742 15.7027 11.4508 16.9667 10 16.9667C8.5492 16.9667 7.32581 15.7027 7.12802 14.0381C7.69877 13.7936 8.1 13.2264 8.1 12.5667V11.756C9.243 11.1637 10.235 9.96069 10.9433 8.62451C11.6636 7.2659 12.1 5.75203 12.1 4.56666C12.1 3.92666 12.072 3.42779 11.8988 3.01798C11.7241 2.60469 11.4075 2.29355 10.8613 2.01044C10.6987 1.84497 10.4151 1.57461 10.0882 1.34275C9.75761 1.1083 9.36465 0.9 9 0.9C8.11767 0.9 7.4 1.61767 7.4 2.5C7.4 3.38233 8.11767 4.1 9 4.1C9.30119 4.1 9.62016 3.95808 9.90517 3.77955C10.1648 3.61689 10.4069 3.41705 10.597 3.24381C10.648 3.2822 10.6887 3.32143 10.7221 3.36493C10.768 3.42474 10.8033 3.49688 10.83 3.594C10.8847 3.79335 10.9 4.08553 10.9 4.56666C10.9 5.71458 10.3728 7.32137 9.54927 8.64264C9.1382 9.30213 8.65642 9.88529 8.13528 10.3026C7.61388 10.72 7.05935 10.9667 6.5 10.9667C5.94108 10.9667 5.38676 10.7202 4.86543 10.3028C4.34437 9.8857 3.86253 9.30272 3.45135 8.64335C2.62757 7.32232 2.1 5.71554 2.1 4.56666C2.1 4.08553 2.11533 3.79335 2.17003 3.594C2.19669 3.49688 2.23204 3.42474 2.27795 3.36493C2.31133 3.32143 2.35203 3.28219 2.40295 3.24381C2.59312 3.41704 2.83516 3.61689 3.09483 3.77955C3.37984 3.95808 3.69881 4.1 4 4.1C4.88233 4.1 5.6 3.38233 5.6 2.5C5.6 1.61767 4.88233 0.9 4 0.9C3.63535 0.9 3.2424 1.1083 2.91181 1.34275C2.58489 1.57461 2.30133 1.84497 2.13874 2.01044C1.59254 2.29355 1.27589 2.60469 1.1012 3.01798C0.927986 3.42779 0.9 3.92666 0.9 4.56666C0.9 5.72415 1.3261 7.2328 2.0412 8.59576C2.74472 9.93665 3.73697 11.1536 4.9 11.756V12.5667ZM9.26094 2.23173C9.36876 2.30178 9.49302 2.39433 9.6207 2.50001C9.49304 2.60574 9.36885 2.69829 9.26115 2.76835C9.19471 2.81157 9.1361 2.8452 9.08787 2.86804C9.03927 2.89104 9.00995 2.8988 8.99697 2.89999C8.77789 2.89835 8.6 2.71946 8.6 2.5C8.6 2.2804 8.77802 2.10165 8.99592 2.10001C9.00912 2.1012 9.03864 2.10901 9.08736 2.13203C9.1357 2.15487 9.19442 2.18851 9.26094 2.23173ZM13.5 12.1667C13.7205 12.1667 13.9 12.3462 13.9 12.5667C13.9 12.7871 13.7205 12.9667 13.5 12.9667C13.2795 12.9667 13.1 12.7871 13.1 12.5667C13.1 12.3462 13.2795 12.1667 13.5 12.1667ZM6.1 12.1407C6.36863 12.1753 6.63134 12.1753 6.9 12.1407V12.5667C6.9 12.7871 6.72047 12.9667 6.5 12.9667C6.27953 12.9667 6.1 12.7871 6.1 12.5667V12.1407ZM3.91213 2.13196C3.96073 2.10895 3.99005 2.10119 4.00303 2.10001C4.22211 2.10165 4.4 2.28054 4.4 2.5C4.4 2.7196 4.22198 2.89835 4.00408 2.89999C3.99088 2.8988 3.96136 2.89099 3.91264 2.86797C3.8643 2.84513 3.80558 2.81149 3.73906 2.76827C3.63124 2.69822 3.50698 2.60567 3.3793 2.49998C3.50696 2.39426 3.63115 2.3017 3.73885 2.23165C3.80529 2.18843 3.8639 2.15479 3.91213 2.13196Z" fill="#8492A6" stroke="#8492A6" stroke-width="0.2"/>
</svg>
