<svg width="17" height="17" viewBox="0 0 17 17" fill="none" xmlns="http://www.w3.org/2000/svg">
<path d="M16.4516 10.9677C16.2963 10.9677 0.684797 10.9677 0.54842 10.9677C0.24554 10.9677 3.42741e-05 11.2132 3.42741e-05 11.5161C3.42741e-05 11.819 0.24554 12.0645 0.54842 12.0645H0.78169C2.13871 15.0022 5.10376 17 8.50053 17C11.8981 17 14.8624 15 16.2183 12.0645H16.4516C16.7545 12.0645 17 11.819 17 11.5161C17 11.2132 16.7545 10.9677 16.4516 10.9677V10.9677ZM5.41322 12.0645H7.95163V15.4027C6.8489 14.5339 5.99852 13.4162 5.41322 12.0645ZM9.0484 15.4027V12.0645H11.5868C11.0014 13.4162 10.1511 14.5339 9.0484 15.4027ZM2.00853 12.0645H4.2297C4.76506 13.4563 5.56053 14.6688 6.577 15.652C4.64161 15.1357 2.98706 13.8515 2.00853 12.0645ZM10.423 15.6521C11.4394 14.6689 12.2349 13.4563 12.7703 12.0645H14.9915C14.013 13.8515 12.3584 15.1357 10.423 15.6521V15.6521ZM0.54842 6.03221H16.4516C16.7545 6.03221 17 5.78671 17 5.48383C17 5.18095 16.7545 4.93544 16.4516 4.93544H16.2183C13.9946 0.121405 8.00109 -1.455 3.70983 1.47736C2.43216 2.35042 1.42591 3.54076 0.781656 4.93544H0.548386C0.245506 4.93544 0 5.18095 0 5.48383C0 5.78671 0.24554 6.03221 0.54842 6.03221V6.03221ZM11.614 4.93544H9.0484V1.6368C9.795 2.26481 10.8796 3.36655 11.614 4.93544ZM7.95163 1.6368V4.93548H5.38597C6.12047 3.36655 7.20504 2.26481 7.95163 1.6368ZM14.9915 4.93544H12.8103C12.1621 3.34214 11.1686 2.1359 10.3302 1.32402C12.3054 1.82366 13.9974 3.11994 14.9915 4.93544ZM6.66981 1.32402C5.83147 2.1359 4.8379 3.34218 4.1897 4.93544H2.00853C3.00265 3.11994 4.6946 1.82366 6.66981 1.32402ZM5.35646 6.73771C5.64831 6.81877 5.81913 7.12103 5.73807 7.41284L5.05259 9.88058C4.9363 10.2994 4.39991 10.4229 4.11245 10.096L3.56454 9.47306L3.01664 10.096C2.7299 10.4221 2.19303 10.3003 2.0765 9.88058L1.39102 7.41284C1.30996 7.12103 1.48078 6.81877 1.77262 6.73771C2.06443 6.65662 2.36673 6.82751 2.44776 7.11932L2.86213 8.61103C3.14469 8.28982 3.26002 8.09439 3.56454 8.09439C3.86907 8.09439 3.98358 8.28886 4.26696 8.61103L4.68133 7.11932C4.76236 6.82751 5.06465 6.65669 5.35646 6.73771ZM15.2274 6.73771C15.5193 6.81877 15.6901 7.12103 15.609 7.41284L14.9235 9.88058C14.8072 10.2994 14.2709 10.4229 13.9834 10.096L13.4355 9.47306L12.8876 10.096C12.5998 10.4232 12.0636 10.2988 11.9474 9.88058L11.262 7.41284C11.1809 7.12103 11.3517 6.81877 11.6436 6.73771C11.9353 6.65662 12.2377 6.82751 12.3187 7.11932L12.7331 8.61103C13.0156 8.28982 13.131 8.09439 13.4355 8.09439C13.74 8.09439 13.8545 8.28886 14.1379 8.61103L14.5523 7.11932C14.6333 6.82751 14.9357 6.65669 15.2274 6.73771V6.73771ZM10.2919 6.73771C10.5838 6.81877 10.7546 7.12103 10.6735 7.41284L9.98806 9.88058C9.87177 10.2994 9.33538 10.4229 9.04792 10.096L8.50002 9.47306L7.95211 10.096C7.66537 10.4221 7.1285 10.3003 7.01197 9.88058L6.32649 7.41284C6.24543 7.12103 6.41625 6.81877 6.7081 6.73771C6.99987 6.65662 7.30221 6.82751 7.38323 7.11932L7.7976 8.61103C8.08016 8.28982 8.19549 8.09439 8.50002 8.09439C8.80454 8.09439 8.91905 8.28886 9.20243 8.61103L9.6168 7.11932C9.69786 6.82751 10.0003 6.65669 10.2919 6.73771Z" fill="#8492A6"/>
</svg>
