<?xml version="1.0" encoding="utf-8"?>
<!-- Generator: Adobe Illustrator 17.0.0, SVG Export Plug-In . SVG Version: 6.00 Build 0)  -->
<!DOCTYPE svg PUBLIC "-//W3C//DTD SVG 1.1//EN" "http://www.w3.org/Graphics/SVG/1.1/DTD/svg11.dtd">
<svg version="1.1" id="Layer_1" xmlns="http://www.w3.org/2000/svg" xmlns:xlink="http://www.w3.org/1999/xlink" x="0px" y="0px"
	 width="24px" height="24px" viewBox="0 0 24 24" enable-background="new 0 0 24 24" xml:space="preserve">
<g>
	<g>
		<defs>
			<rect id="SVGID_1_" width="24" height="24"/>
		</defs>
		<clipPath id="SVGID_2_">
			<use xlink:href="#SVGID_1_"  overflow="visible"/>
		</clipPath>
		<g clip-path="url(#SVGID_2_)">
			<path fill="#369EFB" d="M0.937,11.063h19.854L17.502,7.79c-0.367-0.365-0.368-0.959-0.003-1.326s0.959-0.368,1.326-0.003
				l4.899,4.875l0.001,0.001c0.366,0.365,0.367,0.961,0,1.327l-0.001,0.001l-4.899,4.875c-0.367,0.365-0.96,0.364-1.326-0.003
				c-0.365-0.367-0.364-0.961,0.003-1.326l3.289-3.273H0.937C0.42,12.938,0,12.518,0,12S0.42,11.063,0.937,11.063z"/>
		</g>
	</g>
</g>
</svg>
