<svg width="22" height="22" viewBox="0 0 22 22" fill="none" xmlns="http://www.w3.org/2000/svg">
<path d="M4.99898 7.31909H0.272461V21.513H4.99898V7.31909Z" fill="#0E76A8"/>
<path d="M20.5107 8.61556C19.5178 7.53175 18.2046 6.98975 16.572 6.98975C15.9704 6.98975 15.4236 7.06374 14.9317 7.21184C14.4401 7.35983 14.0248 7.56747 13.6857 7.83486C13.3468 8.10225 13.0769 8.35048 12.8766 8.57954C12.686 8.79711 12.4997 9.05056 12.3179 9.33726V7.31894H7.60547L7.61992 8.00653C7.6296 8.46501 7.63437 9.87811 7.63437 12.246C7.63437 14.6142 7.62483 17.7031 7.60567 21.513H12.3179V13.5923C12.3179 13.1054 12.3701 12.7188 12.4754 12.4321C12.676 11.9448 12.9789 11.5369 13.3849 11.2076C13.791 10.8779 14.2945 10.7132 14.8962 10.7132C15.7172 10.7132 16.3213 10.9973 16.7081 11.5654C17.0947 12.1335 17.2881 12.9189 17.2881 13.9216V21.5125H22.0003V13.3777C22 11.2863 21.5038 9.69902 20.5107 8.61556Z" fill="#0E76A8"/>
<path d="M2.66401 0.487061C1.87158 0.487061 1.22949 0.718782 0.737604 1.18177C0.245768 1.64487 0 2.22951 0 2.93627C0 3.63314 0.238694 4.21578 0.716133 4.68353C1.19342 5.15134 1.82372 5.38537 2.60667 5.38537H2.63532C3.43749 5.38537 4.08449 5.15154 4.57618 4.68353C5.06786 4.21578 5.30891 3.63334 5.29943 2.93627C5.2899 2.22956 5.04624 1.64487 4.56895 1.18177C4.09171 0.718581 3.4565 0.487061 2.66401 0.487061Z" fill="#0E76A8"/>
</svg>
