<?xml version="1.0" encoding="utf-8"?>
<!-- Generator: Adobe Illustrator 17.0.0, SVG Export Plug-In . SVG Version: 6.00 Build 0)  -->
<!DOCTYPE svg PUBLIC "-//W3C//DTD SVG 1.1//EN" "http://www.w3.org/Graphics/SVG/1.1/DTD/svg11.dtd">
<svg version="1.1" id="Layer_1" xmlns="http://www.w3.org/2000/svg" xmlns:xlink="http://www.w3.org/1999/xlink" x="0px" y="0px"
	 width="112px" height="30px" viewBox="0 0 112 30" enable-background="new 0 0 112 30" xml:space="preserve">
<path fill="#369EFB" d="M21.102,29.704c-0.201,0.06-0.398,0.154-0.599,0.165c-0.448,0.026-0.901,0.01-1.352,0.01
	c-1.361,0-1.358-0.003-1.881-1.223C14.213,21.498,11.152,14.34,8.09,7.182C7.186,5.063,6.275,2.948,5.371,0.827
	C5.277,0.608,5.22,0.375,5.104,0.023c1.076,0,2.058-0.02,3.036,0.02C8.29,0.05,8.483,0.309,8.559,0.492
	c1.723,4.008,3.427,8.023,5.144,12.033c1.732,4.052,3.471,8.104,5.218,12.148c0.152,0.358,0.379,0.687,0.572,1.028
	C20.031,27.035,20.565,28.37,21.102,29.704z"/>
<path fill="#369EFB" d="M21.101,29.704c-0.537-1.333-1.071-2.668-1.608-4.003c3.576-8.355,7.156-16.711,10.714-25.075
	c0.199-0.463,0.435-0.644,0.943-0.615c0.83,0.046,1.663,0.013,2.614,0.013c-0.102,0.295-0.165,0.516-0.256,0.73
	c-4.099,9.592-8.206,19.183-12.31,28.775C21.174,29.589,21.134,29.646,21.101,29.704z"/>
<path fill="#369EFB" d="M2.081,0.016c0.518,0,0.974-0.048,1.413,0.021C3.728,0.073,4.047,0.266,4.136,0.47
	c1.993,4.62,3.959,9.252,5.939,13.879c2.102,4.917,4.212,9.828,6.319,14.74c0.093,0.22,0.162,0.452,0.276,0.778
	c-0.511,0-0.946,0.065-1.344-0.027c-0.227-0.051-0.469-0.322-0.573-0.554c-0.953-2.123-1.881-4.257-2.809-6.389
	c-1.372-3.158-2.737-6.322-4.108-9.482C5.938,9.046,4.033,4.677,2.134,0.307C2.109,0.249,2.111,0.181,2.081,0.016z"/>
<path fill="#369EFB" d="M0,0.123c0.699-0.253,1.046-0.066,1.305,0.555c1.577,3.751,3.192,7.486,4.791,11.227
	c1.602,3.742,3.202,7.484,4.801,11.226c0.906,2.116,1.811,4.233,2.715,6.352c0.032,0.074,0.036,0.165,0.061,0.289
	c-0.577,0.184-0.95,0.154-1.222-0.492c-1.87-4.429-3.783-8.838-5.669-13.258C4.823,11.435,2.878,6.845,0.924,2.26
	C0.62,1.548,0.309,0.836,0,0.123z"/>
<path fill="#369EFB" d="M38.991,28.173c-0.788,0.609-1.55,1.065-2.286,1.37c-0.736,0.304-1.562,0.456-2.477,0.456
	c-0.836,0-1.57-0.164-2.202-0.492c-0.632-0.328-1.12-0.773-1.462-1.334c-0.342-0.561-0.513-1.17-0.513-1.826
	c0-0.886,0.283-1.641,0.847-2.266c0.565-0.625,1.341-1.045,2.328-1.257c0.206-0.049,0.721-0.154,1.54-0.32
	c0.82-0.165,1.522-0.318,2.107-0.456c0.585-0.138,1.219-0.307,1.904-0.504c-0.04-0.854-0.213-1.48-0.519-1.88
	c-0.306-0.399-0.942-0.598-1.904-0.598c-0.828,0-1.451,0.115-1.868,0.344c-0.417,0.229-0.776,0.573-1.075,1.032
	c-0.298,0.458-0.509,0.761-0.633,0.907c-0.124,0.147-0.388,0.219-0.794,0.219c-0.366,0-0.682-0.117-0.949-0.35
	c-0.267-0.233-0.401-0.532-0.401-0.895c0-0.57,0.203-1.124,0.609-1.661c0.406-0.538,1.038-0.981,1.897-1.329
	c0.859-0.349,1.929-0.521,3.211-0.521c1.432,0,2.558,0.168,3.378,0.504c0.82,0.337,1.398,0.868,1.737,1.596
	c0.339,0.728,0.508,1.693,0.508,2.894c0,0.759-0.002,1.404-0.006,1.934c-0.004,0.53-0.01,1.119-0.018,1.767
	c0,0.609,0.102,1.244,0.305,1.903c0.203,0.66,0.305,1.086,0.305,1.275c0,0.332-0.157,0.635-0.472,0.907s-0.67,0.409-1.068,0.409
	c-0.335,0-0.665-0.156-0.991-0.468C39.703,29.219,39.357,28.766,38.991,28.173z M38.777,23.488
	c-0.478,0.174-1.171,0.358-2.083,0.552c-0.911,0.194-1.542,0.336-1.892,0.427c-0.35,0.09-0.684,0.269-1.002,0.534
	c-0.318,0.265-0.478,0.635-0.478,1.109c0,0.49,0.187,0.907,0.561,1.251c0.374,0.345,0.863,0.517,1.469,0.517
	c0.644,0,1.239-0.14,1.785-0.42c0.545-0.281,0.945-0.642,1.2-1.086c0.295-0.49,0.442-1.296,0.442-2.42L38.777,23.488L38.777,23.488z
	"/>
<path fill="#369EFB" d="M53.518,28.173c-0.788,0.609-1.55,1.065-2.286,1.37c-0.736,0.304-1.562,0.456-2.477,0.456
	c-0.836,0-1.57-0.164-2.202-0.492c-0.632-0.328-1.12-0.773-1.462-1.334c-0.342-0.561-0.513-1.17-0.513-1.826
	c0-0.886,0.283-1.641,0.847-2.266c0.565-0.625,1.341-1.045,2.328-1.257c0.206-0.049,0.721-0.154,1.54-0.32
	c0.82-0.165,1.522-0.318,2.107-0.456c0.585-0.138,1.219-0.307,1.904-0.504c-0.04-0.854-0.213-1.48-0.519-1.88
	c-0.306-0.399-0.941-0.598-1.904-0.598c-0.828,0-1.451,0.115-1.868,0.344c-0.418,0.229-0.776,0.573-1.075,1.032
	c-0.298,0.458-0.509,0.761-0.633,0.907c-0.123,0.147-0.388,0.219-0.794,0.219c-0.366,0-0.682-0.117-0.949-0.35
	c-0.267-0.233-0.4-0.532-0.4-0.895c0-0.57,0.203-1.124,0.609-1.661c0.406-0.538,1.038-0.981,1.897-1.329
	c0.86-0.349,1.929-0.521,3.211-0.521c1.432,0,2.558,0.168,3.378,0.504c0.82,0.337,1.398,0.868,1.737,1.596
	c0.339,0.728,0.508,1.693,0.508,2.894c0,0.759-0.002,1.404-0.006,1.934c-0.004,0.53-0.01,1.119-0.018,1.767
	c0,0.609,0.102,1.244,0.305,1.903c0.203,0.66,0.305,1.086,0.305,1.275c0,0.332-0.157,0.635-0.472,0.907
	c-0.314,0.273-0.67,0.409-1.068,0.409c-0.335,0-0.664-0.156-0.991-0.468C54.23,29.219,53.884,28.766,53.518,28.173z M53.303,23.488
	c-0.478,0.174-1.171,0.358-2.083,0.552c-0.911,0.194-1.542,0.336-1.892,0.427c-0.35,0.09-0.684,0.269-1.002,0.534
	c-0.318,0.265-0.478,0.635-0.478,1.109c0,0.49,0.187,0.907,0.561,1.251c0.374,0.345,0.863,0.517,1.469,0.517
	c0.644,0,1.239-0.14,1.785-0.42c0.545-0.281,0.945-0.642,1.2-1.086c0.295-0.49,0.442-1.296,0.442-2.42L53.303,23.488L53.303,23.488z
	"/>
<path fill="#369EFB" d="M63.03,25.327v2.704c0,0.656-0.154,1.149-0.465,1.477C62.255,29.836,61.861,30,61.384,30
	c-0.47,0-0.856-0.166-1.158-0.498c-0.302-0.332-0.454-0.823-0.454-1.471v-9.015c0-1.455,0.529-2.182,1.588-2.182
	c0.541,0,0.931,0.17,1.169,0.51c0.239,0.34,0.37,0.842,0.394,1.506c0.389-0.664,0.79-1.166,1.2-1.506
	c0.41-0.341,0.957-0.51,1.642-0.51c0.685,0,1.348,0.17,1.993,0.51c0.645,0.34,0.967,0.79,0.967,1.352
	c0,0.396-0.137,0.722-0.412,0.978c-0.274,0.258-0.571,0.387-0.889,0.387c-0.119,0-0.409-0.073-0.865-0.219
	c-0.457-0.146-0.862-0.219-1.212-0.219c-0.477,0-0.867,0.124-1.169,0.374c-0.303,0.249-0.537,0.619-0.704,1.109
	c-0.167,0.49-0.283,1.073-0.346,1.749C63.062,23.53,63.03,24.355,63.03,25.327z"/>
<path fill="#369EFB" d="M70.975,17.12h0.357v-1.945c0-0.521,0.014-0.931,0.042-1.228c0.028-0.297,0.106-0.552,0.232-0.765
	c0.127-0.221,0.31-0.401,0.549-0.54c0.239-0.138,0.505-0.207,0.799-0.207c0.414,0,0.789,0.154,1.123,0.462
	c0.223,0.206,0.364,0.456,0.423,0.753c0.059,0.297,0.089,0.718,0.089,1.263v2.206h1.194c0.461,0,0.813,0.109,1.056,0.326
	c0.243,0.217,0.364,0.496,0.364,0.835c0,0.435-0.173,0.74-0.519,0.914c-0.347,0.174-0.842,0.261-1.487,0.261h-0.608v5.954
	c0,0.506,0.018,0.895,0.054,1.168c0.036,0.273,0.131,0.494,0.287,0.664c0.154,0.17,0.408,0.254,0.758,0.254
	c0.191,0,0.45-0.033,0.776-0.101c0.327-0.067,0.582-0.101,0.764-0.101c0.262,0,0.499,0.105,0.711,0.315
	c0.21,0.21,0.317,0.469,0.317,0.777c0,0.521-0.287,0.922-0.86,1.198c-0.573,0.276-1.396,0.415-2.471,0.415
	c-1.019,0-1.79-0.17-2.316-0.51c-0.526-0.34-0.869-0.81-1.032-1.411c-0.163-0.601-0.245-1.404-0.245-2.408v-6.215h-0.43
	c-0.469,0-0.828-0.11-1.074-0.332s-0.37-0.502-0.37-0.843c0-0.34,0.129-0.618,0.388-0.835C70.105,17.228,70.482,17.12,70.975,17.12z
	"/>
<path fill="#369EFB" d="M87.692,28.173c-0.788,0.609-1.55,1.065-2.285,1.37c-0.736,0.304-1.563,0.456-2.478,0.456
	c-0.835,0-1.57-0.164-2.203-0.492c-0.632-0.328-1.12-0.773-1.461-1.334c-0.343-0.561-0.514-1.17-0.514-1.826
	c0-0.886,0.283-1.641,0.847-2.266c0.565-0.625,1.341-1.045,2.328-1.257c0.207-0.049,0.72-0.154,1.54-0.32
	c0.82-0.165,1.521-0.318,2.107-0.456c0.586-0.138,1.219-0.307,1.904-0.504c-0.04-0.854-0.213-1.48-0.519-1.88
	c-0.307-0.399-0.942-0.598-1.904-0.598c-0.828,0-1.451,0.115-1.869,0.344c-0.418,0.229-0.776,0.573-1.074,1.032
	c-0.298,0.458-0.509,0.761-0.633,0.907c-0.123,0.147-0.387,0.219-0.794,0.219c-0.366,0-0.682-0.117-0.949-0.35
	c-0.266-0.233-0.4-0.532-0.4-0.895c0-0.57,0.203-1.124,0.608-1.661c0.405-0.538,1.038-0.981,1.898-1.329
	c0.859-0.349,1.929-0.521,3.211-0.521c1.432,0,2.557,0.168,3.378,0.504c0.82,0.337,1.398,0.868,1.737,1.596
	c0.339,0.728,0.507,1.693,0.507,2.894c0,0.759-0.002,1.404-0.006,1.934c-0.004,0.53-0.011,1.119-0.018,1.767
	c0,0.609,0.102,1.244,0.305,1.903c0.203,0.66,0.305,1.086,0.305,1.275c0,0.332-0.157,0.635-0.471,0.907
	c-0.315,0.273-0.671,0.409-1.068,0.409c-0.334,0-0.664-0.156-0.991-0.468C88.404,29.219,88.058,28.766,87.692,28.173z
	 M87.478,23.488c-0.478,0.174-1.171,0.358-2.083,0.552c-0.911,0.194-1.542,0.336-1.892,0.427c-0.35,0.09-0.685,0.269-1.001,0.534
	c-0.319,0.265-0.478,0.635-0.478,1.109c0,0.49,0.186,0.907,0.56,1.251c0.375,0.345,0.864,0.517,1.47,0.517
	c0.644,0,1.239-0.14,1.784-0.42c0.545-0.28,0.945-0.642,1.2-1.086c0.294-0.49,0.442-1.296,0.442-2.42L87.478,23.488L87.478,23.488z"
	/>
<path fill="#369EFB" d="M96.936,18.626v0.391c0.573-0.751,1.2-1.302,1.88-1.655c0.681-0.352,1.462-0.527,2.345-0.527
	c0.861,0,1.628,0.185,2.305,0.557c0.677,0.371,1.181,0.898,1.516,1.577c0.214,0.396,0.354,0.823,0.417,1.281
	c0.063,0.458,0.096,1.044,0.096,1.755v6.025c0,0.649-0.149,1.139-0.448,1.471c-0.299,0.333-0.686,0.498-1.164,0.498
	c-0.485,0-0.879-0.17-1.182-0.51c-0.303-0.34-0.454-0.826-0.454-1.459v-5.397c0-1.067-0.149-1.884-0.447-2.449
	c-0.298-0.566-0.894-0.848-1.785-0.848c-0.581,0-1.11,0.172-1.587,0.516c-0.478,0.345-0.828,0.817-1.051,1.417
	c-0.158,0.483-0.238,1.384-0.238,2.705v4.056c0,0.656-0.154,1.149-0.46,1.477s-0.702,0.492-1.188,0.492
	c-0.469,0-0.856-0.17-1.158-0.51c-0.303-0.34-0.454-0.826-0.454-1.459v-9.356c0-0.617,0.135-1.077,0.406-1.382
	c0.27-0.304,0.64-0.456,1.11-0.456c0.287,0,0.545,0.067,0.776,0.201c0.231,0.135,0.416,0.337,0.555,0.605
	C96.866,17.91,96.936,18.237,96.936,18.626z"/>
<path fill="#369EFB" d="M110.389,15.328c-0.455,0-0.841-0.139-1.164-0.416c-0.322-0.277-0.484-0.668-0.484-1.174
	c0-0.458,0.165-0.836,0.495-1.132s0.714-0.445,1.152-0.445c0.422,0,0.795,0.135,1.122,0.404c0.326,0.269,0.49,0.659,0.49,1.174
	c0,0.498-0.159,0.888-0.477,1.168C111.204,15.188,110.826,15.328,110.389,15.328z M112,18.673v9.358
	c0,0.649-0.155,1.139-0.465,1.471C111.224,29.834,110.83,30,110.353,30c-0.478,0-0.865-0.17-1.164-0.51
	c-0.299-0.34-0.448-0.826-0.448-1.459v-9.263c0-0.64,0.15-1.123,0.448-1.446c0.298-0.324,0.686-0.487,1.164-0.487
	c0.477,0,0.871,0.161,1.182,0.487C111.845,17.645,112,18.096,112,18.673z"/>
</svg>
