<svg width="112" height="30" viewBox="0 0 112 30" fill="#fff" xmlns="http://www.w3.org/2000/svg">
<path fill-rule="evenodd" clip-rule="evenodd" d="M21.1019 29.7038C20.9013 29.7635 20.7039 29.858 20.5033 29.8684C20.0549 29.8943 19.6024 29.8789 19.1508 29.8789C17.7894 29.8789 17.7926 29.8757 17.2703 28.6561C14.2128 21.4983 11.1521 14.3398 8.0897 7.18199C7.18561 5.06324 6.27502 2.94771 5.37093 0.827334C5.2767 0.60779 5.21984 0.374525 5.10449 0.0234162C6.18079 0.0234162 7.16205 0.00323759 8.14087 0.0435949C8.29034 0.0500521 8.48285 0.309146 8.55921 0.491561C10.2821 4.49985 11.9863 8.51459 13.7035 12.5245C15.4353 16.5764 17.1745 20.629 18.9217 24.672C19.0736 25.0296 19.3003 25.3589 19.4936 25.7003C20.0305 27.0354 20.565 28.3704 21.1019 29.7038Z" fill="white" fill-opacity="0.84"/>
<path fill-rule="evenodd" clip-rule="evenodd" d="M21.1015 29.7038C20.5646 28.3704 20.0301 27.0354 19.4932 25.7003C23.0697 17.3456 26.6487 8.98919 30.2074 0.625546C30.4064 0.162245 30.642 -0.0185561 31.1505 0.0105011C31.9807 0.0565084 32.8133 0.0234155 33.7645 0.0234155C33.6621 0.318024 33.5996 0.539182 33.5086 0.753075C29.4097 10.3452 25.3027 19.9365 21.199 29.5278C21.1738 29.5892 21.134 29.6457 21.1015 29.7038Z" fill="white"/>
<path fill-rule="evenodd" clip-rule="evenodd" d="M2.08105 0.0161518C2.5993 0.0161518 3.055 -0.0314698 3.49365 0.0371376C3.72759 0.0734591 4.04682 0.26556 4.13617 0.469768C6.12875 5.08987 8.09533 9.72208 10.0749 14.3486C12.1771 19.2658 14.2867 24.1765 16.3938 29.0887C16.4872 29.3091 16.5554 29.5407 16.67 29.8668C16.159 29.8668 15.7236 29.9314 15.3264 29.8402C15.099 29.7893 14.8577 29.5181 14.7538 29.2865C13.8009 27.1637 12.8725 25.0296 11.9448 22.8971C10.5728 19.7388 9.20818 16.5748 7.83702 13.4148C5.93786 9.04569 4.03301 4.67661 2.13385 0.306724C2.10949 0.249417 2.11111 0.18081 2.08105 0.0161518Z" fill="white" fill-opacity="0.84"/>
<path fill-rule="evenodd" clip-rule="evenodd" d="M0 0.122714C0.699391 -0.13073 1.04624 0.0565277 1.30537 0.67803C2.88285 4.42884 4.49771 8.16431 6.09632 11.9046C7.69817 15.6466 9.2984 19.3885 10.897 23.1304C11.8027 25.2467 12.7084 27.3631 13.6125 29.4826C13.6442 29.5561 13.6483 29.6473 13.6735 29.7716C13.0967 29.9556 12.7239 29.9258 12.4518 29.2792C10.5818 24.8504 8.66887 20.441 6.78271 16.0211C4.82263 11.4349 2.87798 6.84543 0.924398 2.26004C0.619785 1.54813 0.308674 0.836231 0 0.122714Z" fill="white" fill-opacity="0.84"/>
<path d="M38.991 28.1734C38.203 28.782 37.4411 29.2389 36.7051 29.5432C35.9692 29.8474 35.1431 29.9992 34.2284 29.9992C33.3926 29.9992 32.6583 29.8353 32.0263 29.5076C31.3943 29.1799 30.9061 28.7344 30.5642 28.1734C30.2222 27.6125 30.0508 27.0031 30.0508 26.3469C30.0508 25.4606 30.3335 24.7059 30.898 24.0812C31.4634 23.4565 32.2391 23.0367 33.2261 22.8237C33.4324 22.7752 33.9466 22.6695 34.7662 22.5032C35.5858 22.3378 36.2884 22.1852 36.8733 22.0472C37.4582 21.9092 38.0926 21.7405 38.7773 21.5427C38.7375 20.6888 38.5645 20.0624 38.2583 19.6629C37.952 19.2641 37.3168 19.0648 36.3542 19.0648C35.5265 19.0648 34.9035 19.1794 34.4859 19.4086C34.0684 19.6379 33.7102 19.9817 33.4113 20.4402C33.1132 20.8986 32.902 21.2013 32.7785 21.3474C32.655 21.4943 32.3902 21.5669 31.9849 21.5669C31.6185 21.5669 31.3025 21.4499 31.0361 21.2166C30.7689 20.9834 30.6356 20.6847 30.6356 20.3215C30.6356 19.7517 30.8387 19.198 31.2449 18.6604C31.651 18.1228 32.283 17.6797 33.1424 17.3318C34.0018 16.9832 35.0716 16.8104 36.3534 16.8104C37.7855 16.8104 38.9114 16.9783 39.7318 17.3141C40.5514 17.6507 41.1297 18.1818 41.4685 18.9098C41.8072 19.6379 41.9762 20.6024 41.9762 21.8034C41.9762 22.5621 41.9745 23.2071 41.9705 23.7374C41.9664 24.2676 41.9607 24.8569 41.9526 25.5042C41.9526 26.1136 42.0541 26.748 42.2572 27.4074C42.4603 28.0677 42.5618 28.4931 42.5618 28.6827C42.5618 29.0145 42.4051 29.3172 42.0899 29.59C41.7747 29.8628 41.4197 29.9992 41.0217 29.9992C40.687 29.9992 40.3572 29.8434 40.0307 29.531C39.7033 29.2195 39.3573 28.7659 38.991 28.1734ZM38.7765 23.4879C38.2989 23.6623 37.6052 23.8455 36.6938 24.04C35.7824 24.2337 35.152 24.3758 34.8019 24.467C34.4518 24.5574 34.118 24.7358 33.7995 25.0005C33.4811 25.2653 33.3219 25.635 33.3219 26.1096C33.3219 26.5995 33.5087 27.0168 33.8824 27.3606C34.2561 27.7053 34.7459 27.8772 35.351 27.8772C35.9952 27.8772 36.5898 27.7368 37.1357 27.4567C37.6807 27.1758 38.0804 26.8142 38.3354 26.3711C38.6303 25.8811 38.7773 25.0748 38.7773 23.9512V23.4879H38.7765Z" fill="white"/>
<path d="M53.5183 28.1734C52.7304 28.782 51.9684 29.2389 51.2325 29.5432C50.4965 29.8474 49.6704 29.9992 48.7558 29.9992C47.9199 29.9992 47.1856 29.8353 46.5536 29.5076C45.9217 29.1799 45.4335 28.7344 45.0915 28.1734C44.7495 27.6125 44.5781 27.0031 44.5781 26.3469C44.5781 25.4606 44.8608 24.7059 45.4254 24.0812C45.9907 23.4565 46.7665 23.0367 47.7534 22.8237C47.9597 22.7752 48.4739 22.6695 49.2935 22.5032C50.1131 22.3378 50.8158 22.1852 51.4006 22.0472C51.9855 21.9092 52.6199 21.7405 53.3047 21.5427C53.2649 20.6888 53.0918 20.0624 52.7856 19.6629C52.4794 19.2641 51.8442 19.0648 50.8816 19.0648C50.0538 19.0648 49.4308 19.1794 49.0133 19.4086C48.5958 19.6379 48.2375 19.9817 47.9386 20.4402C47.6405 20.8986 47.4293 21.2013 47.3058 21.3474C47.1824 21.4943 46.9175 21.5669 46.5122 21.5669C46.1459 21.5669 45.8299 21.4499 45.5634 21.2166C45.2962 20.9834 45.163 20.6847 45.163 20.3215C45.163 19.7517 45.3661 19.198 45.7722 18.6604C46.1784 18.1228 46.8103 17.6797 47.6697 17.3318C48.5292 16.9832 49.599 16.8104 50.8808 16.8104C52.3129 16.8104 53.4387 16.9783 54.2591 17.3141C55.0787 17.6507 55.6571 18.1818 55.9958 18.9098C56.3345 19.6379 56.5035 20.6024 56.5035 21.8034C56.5035 22.5621 56.5019 23.2071 56.4978 23.7374C56.4938 24.2676 56.4873 24.8569 56.48 25.5042C56.48 26.1136 56.5815 26.748 56.7846 27.4074C56.9876 28.0677 57.0892 28.4931 57.0892 28.6827C57.0892 29.0145 56.9324 29.3172 56.6172 29.59C56.3029 29.8628 55.9471 29.9992 55.5491 29.9992C55.2144 29.9992 54.8846 29.8434 54.5581 29.531C54.2299 29.2195 53.8838 28.7659 53.5183 28.1734ZM53.303 23.4879C52.8254 23.6623 52.1317 23.8455 51.2203 24.04C50.3089 24.2337 49.6786 24.3758 49.3285 24.467C48.9784 24.5574 48.6445 24.7358 48.3261 25.0005C48.0077 25.2653 47.8484 25.635 47.8484 26.1096C47.8484 26.5995 48.0353 27.0168 48.4089 27.3606C48.7826 27.7053 49.2724 27.8772 49.8776 27.8772C50.5217 27.8772 51.1163 27.7368 51.6622 27.4567C52.2073 27.1758 52.6069 26.8142 52.862 26.3711C53.1568 25.8811 53.3039 25.0748 53.3039 23.9512V23.4879H53.303Z" fill="white"/>
<path d="M63.0304 25.3274V28.0314C63.0304 28.6876 62.8761 29.1808 62.565 29.5085C62.2547 29.8362 61.8615 30 61.3839 30C60.9144 30 60.5277 29.8345 60.2256 29.502C59.9234 29.1703 59.7715 28.6795 59.7715 28.0314V19.0164C59.7715 17.5619 60.3003 16.8347 61.3595 16.8347C61.9005 16.8347 62.2904 17.0042 62.5284 17.3448C62.7672 17.6846 62.8988 18.1866 62.9224 18.8509C63.3115 18.1866 63.712 17.6846 64.1222 17.3448C64.5324 17.0042 65.0791 16.8347 65.7638 16.8347C66.4486 16.8347 67.1122 17.0042 67.7572 17.3448C68.4022 17.6846 68.7238 18.135 68.7238 18.6967C68.7238 19.0922 68.5866 19.4191 68.312 19.675C68.0375 19.9325 67.741 20.0616 67.4225 20.0616C67.3031 20.0616 67.014 19.9882 66.5574 19.8421C66.1001 19.696 65.6956 19.6233 65.3455 19.6233C64.8687 19.6233 64.4788 19.7476 64.1766 19.9971C63.8736 20.2465 63.6397 20.6161 63.4723 21.1061C63.305 21.596 63.1896 22.1788 63.1263 22.8552C63.0621 23.5299 63.0304 24.3548 63.0304 25.3274Z" fill="white"/>
<path d="M70.9754 17.1196H71.3328V15.1743C71.3328 14.6529 71.3466 14.2437 71.375 13.9467C71.4026 13.6496 71.4806 13.3946 71.6074 13.1815C71.7341 12.9603 71.9177 12.7803 72.1565 12.6415C72.3953 12.5035 72.6617 12.4341 72.9558 12.4341C73.37 12.4341 73.7445 12.5882 74.0784 12.8966C74.3009 13.1024 74.4423 13.3526 74.5016 13.6496C74.5609 13.9467 74.5909 14.368 74.5909 14.9128V17.1188H75.785C76.2456 17.1188 76.5981 17.2277 76.841 17.4448C77.0839 17.662 77.2049 17.9404 77.2049 18.2802C77.2049 18.7153 77.0319 19.0204 76.6859 19.1939C76.339 19.3683 75.8443 19.4546 75.1993 19.4546H74.5909V25.409C74.5909 25.915 74.6088 26.3041 74.6445 26.5769C74.6803 26.8497 74.7753 27.0709 74.9313 27.2412C75.0856 27.4115 75.3391 27.4954 75.6892 27.4954C75.8801 27.4954 76.1392 27.4623 76.4649 27.3945C76.7915 27.3275 77.0465 27.2936 77.2285 27.2936C77.4908 27.2936 77.728 27.3986 77.9392 27.6084C78.1496 27.8183 78.256 28.0774 78.256 28.3857C78.256 28.9071 77.9685 29.3075 77.3958 29.5835C76.8231 29.8596 75.9995 29.9984 74.9248 29.9984C73.9062 29.9984 73.1345 29.8281 72.6089 29.4883C72.0834 29.1485 71.7398 28.6779 71.5765 28.0774C71.4132 27.4761 71.3312 26.6737 71.3312 25.6697V19.4546H70.9015C70.432 19.4546 70.0737 19.3441 69.8276 19.1229C69.5815 18.9017 69.458 18.6209 69.458 18.2802C69.458 17.9404 69.5872 17.662 69.8463 17.4448C70.1054 17.2277 70.4823 17.1196 70.9754 17.1196Z" fill="white"/>
<path d="M87.692 28.1734C86.904 28.782 86.1421 29.2389 85.407 29.5432C84.671 29.8474 83.8441 29.9992 82.9295 29.9992C82.0944 29.9992 81.3593 29.8353 80.7265 29.5076C80.0945 29.1799 79.6063 28.7344 79.2652 28.1734C78.9224 27.6125 78.751 27.0031 78.751 26.3469C78.751 25.4606 79.0337 24.7059 79.5982 24.0812C80.1636 23.4565 80.9393 23.0367 81.9263 22.8237C82.1334 22.7752 82.6468 22.6695 83.4664 22.5032C84.286 22.3378 84.9878 22.1852 85.5735 22.0472C86.1592 21.9092 86.7928 21.7405 87.4775 21.5427C87.4377 20.6888 87.2647 20.0624 86.9585 19.6629C86.6514 19.2641 86.017 19.0648 85.0544 19.0648C84.2259 19.0648 83.6037 19.1794 83.1853 19.4086C82.7678 19.6379 82.4096 19.9817 82.1115 20.4402C81.8134 20.8986 81.6022 21.2013 81.4787 21.3474C81.356 21.4943 81.0912 21.5669 80.6851 21.5669C80.3187 21.5669 80.0027 21.4499 79.7363 21.2166C79.4699 20.9834 79.3366 20.6847 79.3366 20.3215C79.3366 19.7517 79.5397 19.198 79.9451 18.6604C80.3504 18.1228 80.9832 17.6797 81.8434 17.3318C82.7028 16.9832 83.7726 16.8104 85.0544 16.8104C86.4865 16.8104 87.6116 16.9783 88.432 17.3141C89.2516 17.6507 89.8299 18.1818 90.1687 18.9098C90.5074 19.6379 90.6756 20.6024 90.6756 21.8034C90.6756 22.5621 90.6739 23.2071 90.6699 23.7374C90.6658 24.2676 90.6593 24.8569 90.652 25.5042C90.652 26.1136 90.7535 26.748 90.9566 27.4074C91.1597 28.0677 91.2612 28.4931 91.2612 28.6827C91.2612 29.0145 91.1044 29.3172 90.7901 29.59C90.4749 29.8628 90.1191 29.9992 89.7219 29.9992C89.3881 29.9992 89.0575 29.8434 88.7309 29.531C88.4036 29.2195 88.0583 28.7659 87.692 28.1734ZM87.4775 23.4879C86.9999 23.6623 86.3062 23.8455 85.3948 24.04C84.4842 24.2337 83.853 24.3758 83.5029 24.467C83.1528 24.5574 82.8182 24.7358 82.5014 25.0005C82.1821 25.2653 82.0237 25.635 82.0237 26.1096C82.0237 26.5995 82.2098 27.0168 82.5834 27.3606C82.9579 27.7053 83.4469 27.8772 84.0529 27.8772C84.697 27.8772 85.2916 27.7368 85.8367 27.4567C86.3817 27.1766 86.7814 26.8142 87.0364 26.3711C87.3305 25.8811 87.4783 25.0748 87.4783 23.9512V23.4879H87.4775Z" fill="white"/>
<path d="M96.9356 18.6257V19.0164C97.5083 18.2649 98.1354 17.7144 98.8153 17.3617C99.496 17.0098 100.277 16.8347 101.16 16.8347C102.021 16.8347 102.788 17.0195 103.465 17.3916C104.142 17.7629 104.646 18.2891 104.981 18.9687C105.195 19.3643 105.335 19.792 105.398 20.2497C105.461 20.7081 105.494 21.2933 105.494 22.0052V28.0306C105.494 28.6795 105.345 29.1695 105.046 29.5012C104.747 29.8337 104.36 29.9992 103.882 29.9992C103.397 29.9992 103.003 29.8289 102.7 29.4891C102.397 29.1493 102.246 28.6634 102.246 28.0298V22.6332C102.246 21.5661 102.097 20.7493 101.799 20.1843C101.501 19.6185 100.905 19.336 100.014 19.336C99.4334 19.336 98.9038 19.5079 98.427 19.8518C97.9493 20.1964 97.5992 20.6686 97.3759 21.2691C97.2175 21.7518 97.1379 22.6534 97.1379 23.9739V28.0298C97.1379 28.686 96.9843 29.1791 96.6781 29.5068C96.3719 29.8345 95.9763 29.9984 95.4905 29.9984C95.021 29.9984 94.6343 29.8281 94.333 29.4883C94.03 29.1485 93.8789 28.6626 93.8789 28.029V18.6733C93.8789 18.0567 94.0137 17.5958 94.2851 17.2915C94.5547 16.9872 94.9252 16.8355 95.3947 16.8355C95.6814 16.8355 95.9397 16.9025 96.1704 17.0364C96.4011 17.1712 96.5863 17.373 96.7252 17.6418C96.8657 17.9098 96.9356 18.2375 96.9356 18.6257Z" fill="white"/>
<path d="M110.389 15.3285C109.934 15.3285 109.548 15.1897 109.225 14.9128C108.903 14.636 108.741 14.2445 108.741 13.7384C108.741 13.2808 108.906 12.9022 109.236 12.606C109.566 12.3098 109.95 12.1613 110.388 12.1613C110.81 12.1613 111.183 12.2961 111.51 12.5649C111.836 12.8336 112 13.2243 112 13.7384C112 14.2365 111.841 14.6263 111.523 14.9064C111.204 15.1881 110.826 15.3285 110.389 15.3285ZM112 18.6733V28.0314C112 28.6803 111.845 29.1703 111.535 29.502C111.224 29.8345 110.83 30 110.353 30C109.875 30 109.488 29.8297 109.189 29.4899C108.89 29.1501 108.741 28.6642 108.741 28.0306V18.7678C108.741 18.1277 108.891 17.645 109.189 17.3214C109.487 16.9969 109.875 16.8347 110.353 16.8347C110.83 16.8347 111.224 16.9961 111.535 17.3214C111.845 17.645 112 18.0962 112 18.6733Z" fill="white"/>
</svg>
