<?xml version="1.0" encoding="utf-8"?>
<!-- Generator: Adobe Illustrator 17.0.0, SVG Export Plug-In . SVG Version: 6.00 Build 0)  -->
<!DOCTYPE svg PUBLIC "-//W3C//DTD SVG 1.1//EN" "http://www.w3.org/Graphics/SVG/1.1/DTD/svg11.dtd">
<svg version="1.1" id="Layer_1" xmlns="http://www.w3.org/2000/svg" xmlns:xlink="http://www.w3.org/1999/xlink" x="0px" y="0px"
	 width="59px" height="59px" viewBox="0 0 59 59" enable-background="new 0 0 59 59" xml:space="preserve">
<path fill="#369EFB" d="M57.848,24.055h-7.375c-0.636,0-1.152,0.516-1.152,1.152v5.819c0,0.636,0.516,1.152,1.152,1.152
	c0.636,0,1.152-0.516,1.152-1.152V26.36h5.07v30.336H54.16h-2.535V39.669c0-0.636-0.516-1.152-1.152-1.152
	c-0.636,0-1.152,0.516-1.152,1.152v17.026h-2.305V32.842c0-0.636-0.516-1.152-1.152-1.152h-7.375c-0.637,0-1.152,0.516-1.152,1.152
	v23.854h-2.305V40.908c0-0.636-0.516-1.152-1.152-1.152h-7.375c-0.636,0-1.152,0.516-1.152,1.152v15.787h-2.305V47.52
	c0-0.636-0.516-1.152-1.152-1.152h-7.375c-0.636,0-1.152,0.516-1.152,1.152v9.176h-9.91c-0.635,0-1.152-0.517-1.152-1.152V3.457
	c0-0.635,0.517-1.152,1.152-1.152h29.728V9.91c0,1.906,1.551,3.457,3.457,3.457h7.605v14.174c0,0.636,0.516,1.152,1.152,1.152
	c0.636,0,1.152-0.516,1.152-1.152V12.215c0-0.306-0.121-0.599-0.338-0.815L35.152,0.338C34.936,0.121,34.643,0,34.337,0H3.457
	C1.551,0,0,1.551,0,3.457v52.086C0,57.449,1.551,59,3.457,59h54.391C58.484,59,59,58.484,59,57.848v-32.64
	C59,24.571,58.484,24.055,57.848,24.055z M35.489,3.934l7.128,7.128h-5.976c-0.636,0-1.152-0.517-1.152-1.152V3.934z M20.742,56.695
	h-5.07v-8.023h5.07V56.695z M32.727,56.695h-5.07V42.061h5.07V56.695z M44.711,56.695h-5.07V33.994h5.07V56.695z"/>
<path fill="#369EFB" d="M51.287,34.319c-0.214-0.215-0.512-0.338-0.815-0.338c-0.303,0-0.6,0.122-0.815,0.338
	c-0.214,0.214-0.338,0.512-0.338,0.815s0.123,0.6,0.338,0.815c0.214,0.214,0.512,0.338,0.815,0.338c0.303,0,0.6-0.123,0.815-0.338
	c0.214-0.214,0.338-0.512,0.338-0.815S51.502,34.533,51.287,34.319z"/>
<path fill="#369EFB" d="M16.775,6.307c-0.636,0-1.152,0.516-1.152,1.152v2.073c-5.304,0.576-9.446,5.081-9.446,10.536
	c0,5.844,4.755,10.599,10.599,10.599c5.455,0,9.961-4.142,10.536-9.446h2.073c0.636,0,1.152-0.516,1.152-1.152
	C30.537,12.48,24.364,6.307,16.775,6.307z M16.775,28.362c-4.573,0-8.294-3.721-8.294-8.294c0-4.182,3.112-7.652,7.142-8.214v8.214
	c0,0.636,0.516,1.152,1.152,1.152h8.214C24.427,25.25,20.958,28.362,16.775,28.362z M17.928,18.916L17.928,18.916V8.669
	c5.399,0.542,9.705,4.848,10.247,10.247H17.928z"/>
<path fill="#369EFB" d="M29.385,33.908H7.375c-0.636,0-1.152,0.516-1.152,1.152c0,0.636,0.516,1.152,1.152,1.152h22.01
	c0.636,0,1.152-0.516,1.152-1.152C30.537,34.424,30.021,33.908,29.385,33.908z"/>
<path fill="#369EFB" d="M14.75,39.468H7.375c-0.636,0-1.152,0.516-1.152,1.152c0,0.636,0.516,1.152,1.152,1.152h7.375
	c0.636,0,1.152-0.516,1.152-1.152C15.902,39.984,15.386,39.468,14.75,39.468z"/>
<path fill="#369EFB" d="M21.335,39.805c-0.214-0.214-0.512-0.338-0.815-0.338c-0.304,0-0.6,0.123-0.815,0.338
	c-0.215,0.214-0.338,0.512-0.338,0.815c0,0.303,0.122,0.6,0.338,0.815c0.214,0.214,0.51,0.338,0.815,0.338
	c0.303,0,0.6-0.123,0.815-0.338c0.214-0.214,0.338-0.512,0.338-0.815C21.673,40.317,21.549,40.02,21.335,39.805z"/>
</svg>
