<?xml version="1.0" encoding="utf-8"?>
<!-- Generator: Adobe Illustrator 17.0.0, SVG Export Plug-In . SVG Version: 6.00 Build 0)  -->
<!DOCTYPE svg PUBLIC "-//W3C//DTD SVG 1.1//EN" "http://www.w3.org/Graphics/SVG/1.1/DTD/svg11.dtd">
<svg version="1.1" id="Layer_1" xmlns="http://www.w3.org/2000/svg" xmlns:xlink="http://www.w3.org/1999/xlink" x="0px" y="0px"
	 width="77px" height="72px" viewBox="0 0 77 72" enable-background="new 0 0 77 72" xml:space="preserve">
<path fill="#369EFB" d="M28.125,0C12.617,0,0,12.617,0,28.125S12.617,56.25,28.125,56.25S56.25,43.633,56.25,28.125
	S43.633,0,28.125,0z M28.125,54.375c-14.474,0-26.25-11.776-26.25-26.25s11.776-26.25,26.25-26.25s26.25,11.776,26.25,26.25
	S42.599,54.375,28.125,54.375z"/>
<path fill="#369EFB" d="M12.526,11.926l-1.3-1.351c-0.569,0.549-1.116,1.128-1.626,1.724l1.425,1.22
	C11.496,12.967,12.002,12.431,12.526,11.926z"/>
<path fill="#369EFB" d="M3.827,26.176l1.869,0.148c0.322-4.023,1.724-7.884,4.058-11.176l-1.531-1.084
	C5.695,17.632,4.176,21.817,3.827,26.176z"/>
<path fill="#369EFB" d="M41.25,9.684c0-1-0.369-1.965-1.036-2.709c-0.667-0.745-1.586-1.217-2.58-1.326
	c-0.994-0.109-1.993,0.153-2.806,0.735s-1.382,1.444-1.599,2.42c-0.158,0.712-0.285,1.432-0.416,2.15
	c-1.527-0.42-3.104-0.63-4.688-0.623V5.625H26.25v11.25c-0.002,1.014-0.331,2-0.938,2.813c-0.273,0.364-0.597,0.685-0.963,0.955
	c-1.162,0.857-1.825,2.289-1.771,3.835l0.859,21.494c0.009,0.239-0.031,0.477-0.117,0.7s-0.216,0.427-0.383,0.598
	c-0.341,0.336-0.801,0.525-1.28,0.525s-0.939-0.188-1.28-0.525c-0.167-0.172-0.297-0.375-0.383-0.599
	c-0.086-0.224-0.126-0.462-0.116-0.702l0.671-21.497c0.053-1.541-0.609-2.973-1.772-3.83c-0.366-0.27-0.69-0.592-0.962-0.956
	c-0.607-0.812-0.935-1.798-0.938-2.812V5.625H15v10.487c-1.728,1.878-3.03,4.107-3.819,6.534c-0.788,2.427-1.044,4.996-0.75,7.531
	s1.131,4.977,2.455,7.159c1.323,2.182,3.102,4.053,5.214,5.486l-0.096,3.084c-0.017,0.491,0.066,0.979,0.242,1.438
	c0.176,0.458,0.443,0.876,0.784,1.229s0.75,0.633,1.202,0.825c0.452,0.191,0.938,0.29,1.429,0.29c0.491,0,0.976-0.1,1.428-0.292
	s0.86-0.473,1.201-0.826s0.607-0.772,0.782-1.23c0.176-0.458,0.257-0.947,0.24-1.438l-0.008-0.196
	c2.924,0.481,5.923,0.211,8.713-0.785l-0.063,0.862c-0.034,0.489,0.032,0.98,0.192,1.443s0.412,0.89,0.74,1.254
	c0.328,0.364,0.727,0.658,1.171,0.865s0.926,0.322,1.416,0.339c0.49,0.017,0.978-0.065,1.436-0.241
	c0.458-0.176,0.875-0.442,1.228-0.782s0.633-0.748,0.825-1.2c0.192-0.451,0.291-0.936,0.291-1.426v-5.897
	c3.014-3.274,4.688-7.562,4.688-12.013s-1.673-8.738-4.688-12.013V9.684H41.25z M18.17,40.552
	c-3.212-2.559-5.307-6.263-5.845-10.334c-0.539-4.071,0.521-8.192,2.957-11.498c0.389,1.377,1.227,2.585,2.381,3.432
	c0.665,0.49,1.043,1.334,1.012,2.26L18.17,40.552z M34.167,42.85c-2.821,1.198-5.937,1.518-8.943,0.918l-0.773-19.359
	c-0.031-0.923,0.347-1.767,1.011-2.257c0.513-0.378,0.968-0.829,1.351-1.339c0.85-1.137,1.31-2.518,1.313-3.938v-4.672
	c1.482-0.006,2.958,0.2,4.382,0.612c-0.414,2.756-0.625,5.538-0.632,8.324v9.798c0,0.249,0.099,0.487,0.275,0.663
	c0.176,0.176,0.414,0.274,0.663,0.274h2.159L34.167,42.85z M39.375,46.035c0,0.471-0.188,0.923-0.521,1.257
	c-0.333,0.333-0.785,0.521-1.257,0.521c-0.243,0-0.484-0.05-0.708-0.147c-0.223-0.097-0.424-0.239-0.591-0.416
	c-0.166-0.178-0.294-0.388-0.376-0.617s-0.116-0.473-0.099-0.716l1.092-14.91c0.009-0.128-0.008-0.258-0.05-0.379
	c-0.043-0.122-0.11-0.233-0.198-0.328c-0.088-0.094-0.194-0.17-0.312-0.221C36.237,30.027,36.109,30,35.98,30h-2.23v-8.86
	c0-4.012,0.44-8.013,1.31-11.93c0.116-0.525,0.423-0.989,0.86-1.302c0.437-0.313,0.975-0.454,1.51-0.395s1.029,0.313,1.388,0.713
	c0.359,0.401,0.557,0.92,0.557,1.458V46.035z M44.063,28.125c0.002,3.22-0.98,6.364-2.813,9.012V19.113
	C43.083,21.761,44.064,24.905,44.063,28.125z"/>
<path fill="#328DD8" d="M18.75,5.625h1.875v10.313H18.75V5.625z"/>
<path fill="#328DD8" d="M22.5,5.625h1.875v10.313H22.5V5.625z"/>
<circle fill="#369EFB" fill-opacity="0.08" cx="49.625" cy="44.625" r="26.5"/>
</svg>
