<?xml version="1.0" encoding="utf-8"?>
<!-- Generator: Adobe Illustrator 17.0.0, SVG Export Plug-In . SVG Version: 6.00 Build 0)  -->
<!DOCTYPE svg PUBLIC "-//W3C//DTD SVG 1.1//EN" "http://www.w3.org/Graphics/SVG/1.1/DTD/svg11.dtd">
<svg version="1.1" id="Layer_1" xmlns="http://www.w3.org/2000/svg" xmlns:xlink="http://www.w3.org/1999/xlink" x="0px" y="0px"
	 width="60px" height="57px" viewBox="0 0 60 57" enable-background="new 0 0 60 57" xml:space="preserve">
<path fill="#369EFB" d="M55,7.511h-1V2.817C54,1.264,52.654,0,51,0h-2c-1.654,0-3,1.264-3,2.817v4.694H14V2.817
	C14,1.264,12.654,0,11,0H9C7.346,0,6,1.264,6,2.817v4.694H5c-2.757,0-5,2.106-5,4.694V51.64c0,2.589,2.243,4.694,5,4.694h50
	c2.757,0,5-2.106,5-4.694V12.206C60,9.617,57.757,7.511,55,7.511z M48,8.45V2.817c0-0.518,0.448-0.939,1-0.939h2
	c0.552,0,1,0.421,1,0.939V8.45v3.756c0,0.518-0.448,0.939-1,0.939h-2c-0.552,0-1-0.421-1-0.939V8.45z M8,8.45V2.817
	c0-0.518,0.448-0.939,1-0.939h2c0.552,0,1,0.421,1,0.939V8.45v3.756c0,0.518-0.448,0.939-1,0.939H9c-0.552,0-1-0.421-1-0.939V8.45z
	 M58,51.64c0,1.553-1.346,2.817-3,2.817H5c-1.654,0-3-1.264-3-2.817V24.411h56V51.64z M58,22.534H2V12.206
	c0-1.553,1.346-2.817,3-2.817h1v2.817c0,1.553,1.346,2.817,3,2.817h2c1.654,0,3-1.264,3-2.817V9.389h32v2.817
	c0,1.553,1.346,2.817,3,2.817h2c1.654,0,3-1.264,3-2.817V9.389h1c1.654,0,3,1.264,3,2.817V22.534z"/>
<path fill="#369EFB" d="M41,12.206H19c-0.553,0-1,0.42-1,0.939v5.633c0,0.519,0.447,0.939,1,0.939h22c0.553,0,1-0.42,1-0.939v-5.633
	C42,12.625,41.553,12.206,41,12.206z M40,17.839H20v-3.756h20V17.839z"/>
<path fill="#369EFB" d="M13,27.229H7c-0.553,0-1,0.42-1,0.939v4.695c0,0.519,0.447,0.939,1,0.939h6c0.553,0,1-0.42,1-0.939v-4.695
	C14,27.649,13.553,27.229,13,27.229z M12,31.923H8v-2.817h4V31.923z"/>
<path fill="#369EFB" d="M26,27.229h-6c-0.553,0-1,0.42-1,0.939v4.695c0,0.519,0.447,0.939,1,0.939h6c0.553,0,1-0.42,1-0.939v-4.695
	C27,27.649,26.553,27.229,26,27.229z M25,31.923h-4v-2.817h4V31.923z"/>
<path fill="#369EFB" d="M40,27.229h-6c-0.553,0-1,0.42-1,0.939v4.695c0,0.519,0.447,0.939,1,0.939h6c0.553,0,1-0.42,1-0.939v-4.695
	C41,27.649,40.553,27.229,40,27.229z M39,31.923h-4v-2.817h4V31.923z"/>
<path fill="#369EFB" d="M53,27.229h-6c-0.553,0-1,0.42-1,0.939v4.695c0,0.519,0.447,0.939,1,0.939h6c0.553,0,1-0.42,1-0.939v-4.695
	C54,27.649,53.553,27.229,53,27.229z M52,31.923h-4v-2.817h4V31.923z"/>
<path fill="#369EFB" d="M13,36.617H7c-0.553,0-1,0.42-1,0.939v4.694c0,0.519,0.447,0.939,1,0.939h6c0.553,0,1-0.42,1-0.939v-4.694
	C14,37.037,13.553,36.617,13,36.617z M12,41.312H8v-2.817h4V41.312z"/>
<path fill="#369EFB" d="M26,36.617h-6c-0.553,0-1,0.42-1,0.939v4.694c0,0.519,0.447,0.939,1,0.939h6c0.553,0,1-0.42,1-0.939v-4.694
	C27,37.037,26.553,36.617,26,36.617z M25,41.312h-4v-2.817h4V41.312z"/>
<path fill="#369EFB" d="M40,36.617h-6c-0.553,0-1,0.42-1,0.939v4.694c0,0.519,0.447,0.939,1,0.939h6c0.553,0,1-0.42,1-0.939v-4.694
	C41,37.037,40.553,36.617,40,36.617z M39,41.312h-4v-2.817h4V41.312z"/>
<path fill="#369EFB" d="M53,36.617h-6c-0.553,0-1,0.42-1,0.939v4.694c0,0.519,0.447,0.939,1,0.939h6c0.553,0,1-0.42,1-0.939v-4.694
	C54,37.037,53.553,36.617,53,36.617z M52,41.312h-4v-2.817h4V41.312z"/>
<path fill="#369EFB" d="M13,46.006H7c-0.553,0-1,0.42-1,0.939v4.695c0,0.519,0.447,0.939,1,0.939h6c0.553,0,1-0.42,1-0.939v-4.695
	C14,46.426,13.553,46.006,13,46.006z M12,50.701H8v-2.817h4V50.701z"/>
<path fill="#369EFB" d="M26,46.006h-6c-0.553,0-1,0.42-1,0.939v4.695c0,0.519,0.447,0.939,1,0.939h6c0.553,0,1-0.42,1-0.939v-4.695
	C27,46.426,26.553,46.006,26,46.006z M25,50.701h-4v-2.817h4V50.701z"/>
<path fill="#369EFB" d="M40.231,45.405l-4.299,4.844l-2.226-2.09l-1.414,1.328l3,2.817c0.187,0.177,0.442,0.275,0.707,0.275
	c0.015,0,0.03,0,0.045-0.001c0.281-0.012,0.543-0.134,0.724-0.336l5-5.633L40.231,45.405z"/>
<path fill="#369EFB" d="M52.232,45.405l-4.299,4.844l-2.226-2.09l-1.414,1.328l3,2.817c0.187,0.177,0.442,0.275,0.707,0.275
	c0.015,0,0.03,0,0.045-0.001c0.281-0.012,0.543-0.134,0.724-0.336l5-5.633L52.232,45.405z"/>
</svg>
