<?xml version="1.0" encoding="utf-8"?>
<!-- Generator: Adobe Illustrator 17.0.0, SVG Export Plug-In . SVG Version: 6.00 Build 0)  -->
<!DOCTYPE svg PUBLIC "-//W3C//DTD SVG 1.1//EN" "http://www.w3.org/Graphics/SVG/1.1/DTD/svg11.dtd">
<svg version="1.1" id="Layer_1" xmlns="http://www.w3.org/2000/svg" xmlns:xlink="http://www.w3.org/1999/xlink" x="0px" y="0px"
	 width="70px" height="70px" viewBox="0 0 70 70" enable-background="new 0 0 70 70" xml:space="preserve">
<g>
	<g>
		<defs>
			<rect id="SVGID_1_" width="49" height="55"/>
		</defs>
		<clipPath id="SVGID_2_">
			<use xlink:href="#SVGID_1_"  overflow="visible"/>
		</clipPath>
		<g clip-path="url(#SVGID_2_)">
			<path fill="#369EFB" d="M48.882,31.51c-0.138-0.451-0.404-0.851-0.765-1.15s-0.802-0.485-1.267-0.534
				c-0.429-0.049-0.837-0.21-1.184-0.467c-0.347-0.258-0.622-0.603-0.795-1.001c-0.231-0.534-0.646-0.966-1.167-1.217V8.594h1.035
				c1.13-0.001,2.213-0.454,3.012-1.259C48.55,6.529,49,5.437,49.001,4.298C49,3.159,48.55,2.067,47.752,1.261
				c-0.8-0.807-1.883-1.26-3.013-1.261h-26.63c-0.282,0-0.552,0.113-0.751,0.314s-0.311,0.473-0.311,0.757s0.112,0.556,0.311,0.757
				c0.199,0.201,0.469,0.314,0.751,0.314h26.629c0.565,0.001,1.106,0.228,1.505,0.63c0.399,0.403,0.624,0.949,0.625,1.518
				c0,0.57-0.225,1.116-0.624,1.519c-0.399,0.403-0.941,0.629-1.506,0.63H4.262C3.698,6.438,3.158,6.213,2.759,5.811
				c-0.4-0.401-0.625-0.946-0.627-1.514c0-0.57,0.225-1.116,0.624-1.519s0.941-0.629,1.506-0.63h4.261
				c0.282,0,0.552-0.113,0.751-0.314s0.311-0.473,0.311-0.757S9.473,0.521,9.274,0.32c-0.2-0.201-0.471-0.313-0.752-0.313h-4.26
				C3.133,0.008,2.051,0.46,1.252,1.264S0.003,3.158,0,4.297c0.001,1.139,0.451,2.231,1.249,3.037
				C2.048,8.14,3.131,8.593,4.26,8.594h1.036v18.563c-0.517,0.266-0.926,0.705-1.158,1.241c-0.166,0.374-0.432,0.693-0.769,0.922
				c-0.351,0.255-0.763,0.412-1.194,0.456c-0.466,0.047-0.908,0.23-1.273,0.526s-0.636,0.693-0.781,1.142
				c-0.148,0.453-0.16,0.94-0.035,1.4s0.382,0.872,0.738,1.186c0.308,0.295,0.535,0.665,0.66,1.075
				c0.125,0.409,0.144,0.844,0.054,1.263C1.47,36.68,1.464,37.002,1.52,37.317c0.056,0.314,0.173,0.615,0.345,0.883
				c0.171,0.269,0.393,0.502,0.653,0.684c0.26,0.182,0.554,0.311,0.864,0.378c0.58,0.127,1.187,0.034,1.704-0.262
				c0.376-0.215,0.801-0.327,1.233-0.325c0.432,0.002,0.856,0.119,1.229,0.338c0.37,0.221,0.791,0.338,1.221,0.338
				c0.503-0.001,0.993-0.163,1.401-0.46c0.381-0.273,0.676-0.652,0.848-1.09c0.172-0.439,0.215-0.918,0.122-1.38
				c-0.087-0.427-0.06-0.87,0.077-1.284c0.136-0.412,0.376-0.781,0.697-1.071c0.352-0.311,0.605-0.719,0.728-1.174
				c0.123-0.455,0.111-0.936-0.035-1.384c-0.138-0.451-0.404-0.851-0.766-1.15c-0.361-0.299-0.802-0.485-1.267-0.534
				c-0.428-0.049-0.837-0.209-1.184-0.467s-0.622-0.603-0.795-1.001c-0.231-0.534-0.646-0.966-1.167-1.217V8.594h6.942v9.142
				c-0.914,0.239-1.724,0.778-2.302,1.53c-0.578,0.753-0.893,1.678-0.894,2.631c0.001,1.139,0.451,2.231,1.249,3.037
				c0.799,0.806,1.882,1.259,3.011,1.26c1.13-0.001,2.212-0.454,3.011-1.26s1.248-1.898,1.249-3.037
				c-0.002-0.952-0.317-1.877-0.895-2.63c-0.579-0.753-1.388-1.29-2.303-1.529V8.596h6.942v25.976
				c-2.494,0.268-4.803,1.456-6.482,3.336c-1.679,1.88-2.609,4.319-2.613,6.849c0.003,2.716,1.074,5.319,2.978,7.24
				c1.904,1.92,4.486,3,7.179,3.004c2.693-0.003,5.274-1.083,7.179-3.004c1.904-1.92,2.975-4.524,2.978-7.24
				c-0.004-0.604-0.058-1.206-0.163-1.801c-0.065-0.461-0.289-0.884-0.632-1.194c-0.344-0.311-0.785-0.489-1.246-0.504h-0.074
				c-0.446-0.003-0.88,0.148-1.228,0.428c-0.349,0.28-0.592,0.673-0.688,1.112c-0.174,0.775-0.606,1.467-1.223,1.961
				c-0.617,0.494-1.383,0.761-2.171,0.757c-0.923-0.001-1.807-0.371-2.46-1.029c-0.653-0.658-1.02-1.55-1.021-2.481
				c-0.004-0.795,0.261-1.567,0.751-2.189c0.49-0.622,1.176-1.058,1.944-1.234c0.443-0.1,0.838-0.353,1.116-0.715
				s0.423-0.81,0.409-1.268c-0.006-0.458-0.17-0.899-0.464-1.248c-0.294-0.349-0.699-0.583-1.146-0.664
				c-0.255-0.048-0.524-0.082-0.794-0.114V8.594h6.942v9.142c-0.914,0.239-1.724,0.778-2.302,1.53
				c-0.578,0.753-0.893,1.678-0.894,2.631c0.001,1.138,0.449,2.23,1.246,3.035c0.797,0.806,1.878,1.26,3.007,1.264
				c1.13-0.001,2.213-0.454,3.011-1.26c0.799-0.806,1.248-1.898,1.249-3.037c-0.001-0.952-0.315-1.878-0.894-2.63
				c-0.578-0.753-1.388-1.291-2.302-1.531V8.596h6.942v18.563c-0.517,0.267-0.926,0.707-1.158,1.244
				c-0.166,0.374-0.433,0.694-0.769,0.922c-0.351,0.255-0.763,0.412-1.194,0.456c-0.465,0.047-0.907,0.229-1.271,0.525
				c-0.364,0.295-0.636,0.691-0.782,1.139c-0.148,0.453-0.16,0.94-0.035,1.4c0.125,0.46,0.382,0.872,0.738,1.186
				c0.308,0.295,0.535,0.665,0.66,1.075c0.125,0.409,0.144,0.844,0.054,1.263c-0.068,0.312-0.075,0.635-0.019,0.949
				c0.056,0.314,0.173,0.615,0.345,0.883c0.171,0.269,0.393,0.502,0.653,0.684c0.261,0.182,0.554,0.31,0.864,0.377
				c0.58,0.127,1.187,0.034,1.703-0.262c0.376-0.215,0.801-0.327,1.233-0.325c0.432,0.002,0.856,0.119,1.229,0.338
				c0.369,0.221,0.791,0.337,1.22,0.338c0.503-0.002,0.993-0.163,1.401-0.46c0.381-0.273,0.676-0.652,0.848-1.09
				c0.172-0.439,0.215-0.918,0.122-1.38c-0.086-0.427-0.06-0.87,0.077-1.284c0.136-0.412,0.376-0.781,0.697-1.071
				c0.351-0.311,0.604-0.719,0.727-1.173C49.04,32.438,49.028,31.957,48.882,31.51z M10.336,31.962
				c0.055,0.005,0.108,0.027,0.15,0.063c0.042,0.036,0.073,0.084,0.087,0.138c0.019,0.052,0.022,0.109,0.007,0.163
				c-0.015,0.054-0.046,0.102-0.089,0.137c-0.602,0.54-1.053,1.231-1.307,2.003s-0.302,1.597-0.14,2.393
				c0.01,0.055,0.003,0.112-0.019,0.163s-0.059,0.095-0.105,0.125c-0.042,0.035-0.094,0.055-0.148,0.057
				c-0.054,0.003-0.108-0.012-0.153-0.042C7.916,36.747,7.115,36.529,6.3,36.53c-0.797-0.001-1.581,0.208-2.274,0.604
				c-0.06,0.035-0.131,0.046-0.199,0.031c-0.036-0.008-0.071-0.023-0.101-0.044s-0.056-0.049-0.076-0.08
				c-0.02-0.031-0.034-0.066-0.041-0.103s-0.006-0.074,0.002-0.111c0.171-0.789,0.134-1.61-0.105-2.38
				c-0.24-0.771-0.674-1.465-1.261-2.015c-0.048-0.036-0.083-0.086-0.1-0.143c-0.018-0.057-0.017-0.119,0.002-0.175
				c0.015-0.054,0.047-0.101,0.089-0.136c0.043-0.035,0.095-0.056,0.151-0.06c0.802-0.081,1.57-0.374,2.225-0.848
				c0.607-0.424,1.094-1,1.414-1.671c0.149-0.287,0.156-0.29,0.238-0.329c0.07-0.031,0.149-0.032,0.22-0.004
				c0.071,0.028,0.128,0.083,0.159,0.153c0.324,0.744,0.836,1.389,1.484,1.87s1.411,0.783,2.212,0.874L10.336,31.962L10.336,31.962z
				 M17.558,21.899c-0.001,0.569-0.225,1.115-0.625,1.518c-0.399,0.403-0.941,0.629-1.505,0.63c-0.565,0-1.106-0.227-1.506-0.63
				c-0.399-0.403-0.624-0.949-0.625-1.518c0-0.57,0.225-1.117,0.625-1.52s0.942-0.63,1.508-0.63
				c0.565,0.001,1.106,0.228,1.504,0.631C17.334,20.784,17.558,21.33,17.558,21.899z M21.614,42.006
				c0.002,1.501,0.594,2.94,1.646,4.001s2.479,1.657,3.968,1.658c1.144,0.006,2.263-0.344,3.204-1.001
				c0.941-0.657,1.658-1.59,2.056-2.672c0.027,0.254,0.04,0.51,0.039,0.765c-0.002,2.146-0.849,4.204-2.353,5.721
				c-1.505,1.518-3.545,2.371-5.673,2.374c-2.128-0.003-4.168-0.856-5.673-2.374c-1.505-1.517-2.351-3.575-2.354-5.721
				c0.003-2.146,0.849-4.203,2.354-5.721c1.505-1.517,3.545-2.371,5.673-2.374c0.239,0,0.499,0.014,0.76,0.04
				c-1.073,0.4-1.999,1.124-2.651,2.073s-0.999,2.077-0.993,3.231H21.614z M35.699,21.899c-0.001,0.57-0.226,1.117-0.626,1.52
				c-0.4,0.403-0.943,0.629-1.508,0.628c-0.563-0.002-1.103-0.23-1.501-0.632s-0.622-0.947-0.622-1.516s0.224-1.114,0.622-1.517
				s0.938-0.63,1.502-0.633c0.28,0,0.558,0.055,0.816,0.163c0.259,0.108,0.494,0.266,0.692,0.466c0.198,0.2,0.355,0.437,0.463,0.698
				C35.644,21.337,35.699,21.617,35.699,21.899z M46.773,32.462c-0.602,0.54-1.053,1.231-1.307,2.003
				c-0.254,0.771-0.303,1.597-0.141,2.393c0.01,0.055,0.003,0.112-0.019,0.163s-0.058,0.095-0.105,0.125
				c-0.042,0.035-0.094,0.055-0.148,0.058c-0.054,0.003-0.108-0.012-0.153-0.042c-0.703-0.415-1.504-0.633-2.319-0.632
				c-0.797,0-1.58,0.208-2.274,0.604c-0.06,0.035-0.131,0.046-0.199,0.03c-0.036-0.008-0.071-0.023-0.101-0.044
				c-0.03-0.021-0.056-0.049-0.076-0.08c-0.02-0.031-0.034-0.066-0.041-0.103s-0.006-0.074,0.002-0.111
				c0.17-0.79,0.132-1.61-0.109-2.381s-0.677-1.465-1.265-2.013c-0.048-0.036-0.083-0.086-0.1-0.143
				c-0.018-0.057-0.017-0.118,0.002-0.175c0.015-0.054,0.047-0.101,0.09-0.136s0.095-0.056,0.151-0.06
				c0.802-0.081,1.57-0.374,2.225-0.848c0.608-0.424,1.095-1,1.416-1.672c0.15-0.287,0.156-0.29,0.239-0.33
				c0.035-0.015,0.072-0.024,0.109-0.024c0.038-0.001,0.075,0.006,0.11,0.02s0.067,0.035,0.094,0.061
				c0.027,0.026,0.049,0.058,0.064,0.093c0.324,0.743,0.837,1.388,1.485,1.869c0.649,0.481,1.411,0.782,2.212,0.873
				c0.055,0.005,0.108,0.027,0.15,0.063c0.043,0.036,0.073,0.084,0.087,0.138c0.02,0.053,0.023,0.11,0.008,0.165
				C46.848,32.379,46.817,32.427,46.773,32.462z"/>
		</g>
	</g>
</g>
<circle fill="#369EFB" fill-opacity="0.08" cx="43.5" cy="43.5" r="26.5"/>
</svg>
